<?xml version="1.0" encoding="utf-8"?>
<!-- Generator: Adobe Illustrator 22.0.1, SVG Export Plug-In . SVG Version: 6.00 Build 0)  -->
<svg version="1.1" id="Layer_1" xmlns="http://www.w3.org/2000/svg" xmlns:xlink="http://www.w3.org/1999/xlink" x="0px" y="0px"
	 viewBox="0 0 400 400" style="enable-background:new 0 0 400 400;" xml:space="preserve">
<style type="text/css">
	.st0{fill:none;}
	.st1{fill:#2684FF;}
	.st2{fill:url(#SVGID_1_);}
</style>
<g>
	<polygon class="st0" points="159.8,258.6 239.6,258.6 258.9,146 138.5,146 	"/>
	<path class="st1" d="M20.8,30.6c-3.6,0-7.1,1.5-9.4,4.3s-3.4,6.4-2.8,10l52,315.9c1.3,8,8.2,13.8,16.3,13.9h249.6
		c6.1,0.1,11.3-4.3,12.3-10.3l52-319.5c0.6-3.6-0.5-7.2-2.8-10s-5.8-4.3-9.4-4.3L20.8,30.6z M239.9,258.9h-79.7l-21.6-112.7h120.6
		L239.9,258.9z"/>
	
		<linearGradient id="SVGID_1_" gradientUnits="userSpaceOnUse" x1="-753.5582" y1="738.1233" x2="-754.4804" y2="737.1525" gradientTransform="matrix(206 0 0 -152.7284 155633.6094 112909.9609)">
		<stop  offset="0.18" style="stop-color:#0052CC"/>
		<stop  offset="1" style="stop-color:#2684FF"/>
	</linearGradient>
	<path class="st2" d="M374,146H259l-19.3,112.6h-79.6l-94,111.6c3,2.6,6.8,4,10.7,4h249.5c6.1,0.1,11.3-4.3,12.2-10.3L374,146z"/>
</g>
</svg>
