<svg id="svg" version="1.1" width="400" height="400" viewBox="0 0 400 400" xmlns="http://www.w3.org/2000/svg" xmlns:xlink="http://www.w3.org/1999/xlink" ><g id="svgg"><path id="path0" d="" stroke="none" fill="#b6b6b6" fill-rule="evenodd"></path><path id="path1" d="M53.600 58.800 C 53.600 59.020,53.065 59.200,52.412 59.200 C 51.212 59.200,48.434 60.520,47.922 61.335 C 47.769 61.578,47.515 61.648,47.358 61.491 C 47.005 61.139,42.000 66.360,42.000 67.080 C 42.000 67.366,41.820 67.600,41.600 67.600 C 41.380 67.600,41.200 67.960,41.200 68.400 C 41.200 68.840,41.020 69.200,40.800 69.200 C 40.580 69.200,40.400 69.560,40.400 70.000 C 40.400 70.440,40.220 70.800,40.000 70.800 C 39.780 70.800,39.600 71.340,39.600 72.000 C 39.600 72.660,39.420 73.200,39.200 73.200 C 38.934 73.200,38.800 115.867,38.800 200.400 C 38.800 284.933,38.934 327.600,39.200 327.600 C 39.420 327.600,39.600 328.140,39.600 328.800 C 39.600 329.460,39.780 330.000,40.000 330.000 C 40.220 330.000,40.400 330.360,40.400 330.800 C 40.400 331.240,40.580 331.600,40.800 331.600 C 41.020 331.600,41.200 331.960,41.200 332.400 C 41.200 332.840,41.380 333.200,41.600 333.200 C 41.820 333.200,42.000 333.440,42.000 333.733 C 42.000 334.402,46.687 339.200,47.341 339.200 C 47.606 339.200,48.083 339.560,48.400 340.000 C 48.717 340.440,49.297 340.800,49.688 340.800 C 50.080 340.800,50.400 340.980,50.400 341.200 C 50.400 341.420,51.120 341.600,52.000 341.600 C 52.880 341.600,53.600 341.780,53.600 342.000 C 53.600 342.266,102.800 342.400,200.400 342.400 C 298.000 342.400,347.200 342.266,347.200 342.000 C 347.200 341.780,347.920 341.600,348.800 341.600 C 349.680 341.600,350.400 341.420,350.400 341.200 C 350.400 340.980,350.694 340.800,351.053 340.800 C 351.412 340.800,352.043 340.411,352.456 339.936 C 352.868 339.461,353.305 339.172,353.428 339.295 C 353.757 339.624,358.800 334.439,358.800 333.771 C 358.800 333.457,358.980 333.200,359.200 333.200 C 359.420 333.200,359.600 332.840,359.600 332.400 C 359.600 331.960,359.780 331.600,360.000 331.600 C 360.220 331.600,360.400 331.240,360.400 330.800 C 360.400 330.360,360.580 330.000,360.800 330.000 C 361.020 330.000,361.200 329.460,361.200 328.800 C 361.200 328.140,361.380 327.600,361.600 327.600 C 361.866 327.600,362.000 284.933,362.000 200.400 C 362.000 115.867,361.866 73.200,361.600 73.200 C 361.380 73.200,361.200 72.660,361.200 72.000 C 361.200 71.340,361.020 70.800,360.800 70.800 C 360.580 70.800,360.400 70.440,360.400 70.000 C 360.400 69.560,360.262 69.200,360.094 69.200 C 359.926 69.200,359.477 68.481,359.096 67.602 C 358.352 65.884,354.248 61.600,353.347 61.600 C 353.046 61.600,352.800 61.453,352.800 61.274 C 352.800 60.708,349.574 59.200,348.362 59.200 C 347.723 59.200,347.200 59.020,347.200 58.800 C 347.200 58.534,298.000 58.400,200.400 58.400 C 102.800 58.400,53.600 58.534,53.600 58.800 M260.000 72.400 C 260.000 72.620,260.636 72.800,261.413 72.800 C 262.297 72.800,262.911 73.024,263.054 73.398 C 263.181 73.726,263.454 73.890,263.661 73.762 C 264.186 73.438,268.380 77.640,268.391 78.500 C 268.396 78.885,268.580 79.200,268.800 79.200 C 269.020 79.200,269.200 79.560,269.200 80.000 C 269.200 80.440,269.380 80.800,269.600 80.800 C 269.820 80.800,270.000 81.419,270.000 82.176 C 270.000 82.933,270.180 83.664,270.400 83.800 C 270.620 83.936,270.800 84.397,270.800 84.824 C 270.800 85.251,270.620 85.600,270.400 85.600 C 270.180 85.600,270.000 86.320,270.000 87.200 C 270.000 88.080,269.820 88.800,269.600 88.800 C 269.380 88.800,269.200 89.120,269.200 89.512 C 269.200 89.903,268.840 90.483,268.400 90.800 C 267.960 91.117,267.600 91.664,267.600 92.016 C 267.600 92.784,265.835 94.400,264.997 94.400 C 264.669 94.400,264.400 94.599,264.400 94.843 C 264.400 95.086,264.145 95.188,263.833 95.068 C 263.521 94.948,263.167 95.109,263.046 95.425 C 262.924 95.741,262.459 96.000,262.013 96.000 C 261.566 96.000,261.200 96.180,261.200 96.400 C 261.200 97.040,256.016 96.906,255.767 96.259 C 255.641 95.929,255.179 95.791,254.580 95.906 C 254.013 96.014,253.600 95.905,253.600 95.647 C 253.600 95.401,253.318 95.200,252.974 95.200 C 252.159 95.200,248.000 91.041,248.000 90.226 C 248.000 89.882,247.820 89.600,247.600 89.600 C 247.380 89.600,247.200 89.240,247.200 88.800 C 247.200 88.360,247.020 88.000,246.800 88.000 C 246.567 88.000,246.400 86.667,246.400 84.800 C 246.400 82.933,246.567 81.600,246.800 81.600 C 247.020 81.600,247.200 81.060,247.200 80.400 C 247.200 79.740,247.380 79.200,247.600 79.200 C 247.820 79.200,248.000 78.935,248.000 78.611 C 248.000 77.741,251.234 74.400,252.076 74.400 C 252.474 74.400,252.800 74.264,252.800 74.098 C 252.800 73.601,255.174 72.705,255.826 72.955 C 256.164 73.084,256.531 72.925,256.658 72.593 C 256.917 71.919,260.000 71.741,260.000 72.400 M295.726 72.551 C 295.860 72.900,296.313 73.029,296.968 72.904 C 297.579 72.787,298.000 72.889,298.000 73.153 C 298.000 73.399,298.360 73.600,298.800 73.600 C 299.240 73.600,299.600 73.750,299.600 73.932 C 299.600 74.115,300.095 74.520,300.700 74.832 C 302.143 75.577,302.800 76.219,302.800 76.883 C 302.800 77.180,303.160 77.683,303.600 78.000 C 304.040 78.317,304.400 78.897,304.400 79.288 C 304.400 79.680,304.580 80.000,304.800 80.000 C 305.020 80.000,305.200 80.540,305.200 81.200 C 305.200 81.860,305.380 82.400,305.600 82.400 C 305.822 82.400,306.000 83.467,306.000 84.800 C 306.000 86.133,305.822 87.200,305.600 87.200 C 305.380 87.200,305.200 87.560,305.200 88.000 C 305.200 88.440,305.020 88.800,304.800 88.800 C 304.580 88.800,304.400 89.160,304.400 89.600 C 304.400 90.040,304.220 90.400,304.000 90.400 C 303.780 90.400,303.600 90.676,303.600 91.013 C 303.600 91.729,301.045 94.400,300.360 94.400 C 300.104 94.400,299.562 94.782,299.157 95.249 C 298.695 95.782,298.128 96.022,297.636 95.894 C 297.178 95.774,296.763 95.920,296.638 96.244 C 296.385 96.904,291.200 97.053,291.200 96.400 C 291.200 96.180,290.654 96.000,289.987 96.000 C 289.293 96.000,288.679 95.750,288.550 95.415 C 288.427 95.094,287.955 94.713,287.501 94.569 C 286.310 94.191,284.000 91.984,284.000 91.224 C 284.000 90.868,283.640 90.317,283.200 90.000 C 282.730 89.661,282.400 88.965,282.400 88.312 C 282.400 87.700,282.220 87.200,282.000 87.200 C 281.778 87.200,281.600 86.133,281.600 84.800 C 281.600 83.467,281.778 82.400,282.000 82.400 C 282.220 82.400,282.400 81.860,282.400 81.200 C 282.400 80.540,282.580 80.000,282.800 80.000 C 283.020 80.000,283.200 79.706,283.200 79.347 C 283.200 78.988,283.539 78.400,283.953 78.041 C 284.366 77.682,284.773 77.036,284.856 76.604 C 284.939 76.173,285.409 75.620,285.901 75.375 C 286.392 75.129,287.144 74.612,287.572 74.225 C 288.000 73.838,288.522 73.628,288.733 73.759 C 288.944 73.889,289.219 73.726,289.346 73.398 C 289.472 73.069,290.031 72.800,290.587 72.800 C 291.144 72.800,291.600 72.620,291.600 72.400 C 291.600 71.764,295.478 71.905,295.726 72.551 M331.000 72.400 C 331.136 72.620,331.687 72.800,332.224 72.800 C 332.761 72.800,333.200 72.980,333.200 73.200 C 333.200 73.420,333.560 73.600,334.000 73.600 C 334.440 73.600,334.800 73.780,334.800 74.000 C 334.800 74.220,335.076 74.400,335.413 74.400 C 336.162 74.400,338.800 76.969,338.800 77.698 C 338.800 77.987,339.160 78.483,339.600 78.800 C 340.070 79.139,340.400 79.835,340.400 80.488 C 340.400 81.100,340.580 81.600,340.800 81.600 C 341.033 81.600,341.200 82.933,341.200 84.800 C 341.200 86.667,341.033 88.000,340.800 88.000 C 340.580 88.000,340.400 88.360,340.400 88.800 C 340.400 89.240,340.220 89.600,340.000 89.600 C 339.780 89.600,339.600 89.878,339.600 90.217 C 339.600 90.983,335.338 95.200,334.565 95.200 C 334.254 95.200,334.000 95.380,334.000 95.600 C 334.000 95.820,333.460 96.000,332.800 96.000 C 332.140 96.000,331.600 96.180,331.600 96.400 C 331.600 96.629,330.400 96.800,328.800 96.800 C 327.260 96.800,326.000 96.662,326.000 96.494 C 326.000 96.326,325.280 95.877,324.400 95.496 C 323.520 95.114,322.800 94.611,322.800 94.378 C 322.800 94.144,322.607 94.072,322.370 94.218 C 321.842 94.545,320.000 92.881,320.000 92.077 C 320.000 91.756,319.685 91.201,319.300 90.843 C 318.216 89.834,317.600 88.525,317.600 87.229 C 317.600 86.579,317.420 85.936,317.200 85.800 C 316.980 85.664,316.800 85.034,316.800 84.400 C 316.800 83.766,316.980 83.136,317.200 83.000 C 317.420 82.864,317.600 82.324,317.600 81.800 C 317.600 81.276,317.780 80.736,318.000 80.600 C 318.220 80.464,318.400 79.995,318.400 79.558 C 318.400 79.121,318.805 78.348,319.300 77.841 C 319.795 77.333,320.593 76.486,321.072 75.959 C 323.047 73.788,324.728 72.800,326.446 72.800 C 327.081 72.800,327.600 72.620,327.600 72.400 C 327.600 72.180,328.309 72.000,329.176 72.000 C 330.043 72.000,330.864 72.180,331.000 72.400 M341.200 216.800 L 341.200 322.400 200.400 322.400 L 59.600 322.400 59.600 216.800 L 59.600 111.200 200.400 111.200 L 341.200 111.200 341.200 216.800 M207.600 157.200 C 207.600 157.420,207.317 157.600,206.971 157.600 C 206.163 157.600,205.200 158.563,205.200 159.371 C 205.200 159.717,205.020 160.000,204.800 160.000 C 204.580 160.000,204.400 160.439,204.400 160.976 C 204.400 161.513,204.220 162.064,204.000 162.200 C 203.780 162.336,203.600 162.876,203.600 163.400 C 203.600 163.924,203.420 164.464,203.200 164.600 C 202.980 164.736,202.800 165.456,202.800 166.200 C 202.800 166.944,202.620 167.664,202.400 167.800 C 202.180 167.936,202.000 168.656,202.000 169.400 C 202.000 170.144,201.820 170.864,201.600 171.000 C 201.380 171.136,201.200 171.867,201.200 172.624 C 201.200 173.381,201.020 174.000,200.800 174.000 C 200.580 174.000,200.400 174.720,200.400 175.600 C 200.400 176.480,200.220 177.200,200.000 177.200 C 199.780 177.200,199.600 177.819,199.600 178.576 C 199.600 179.333,199.420 180.064,199.200 180.200 C 198.980 180.336,198.800 181.056,198.800 181.800 C 198.800 182.544,198.620 183.264,198.400 183.400 C 198.180 183.536,198.000 184.447,198.000 185.424 C 198.000 186.401,197.837 187.200,197.638 187.200 C 197.439 187.200,197.373 187.920,197.491 188.800 C 197.660 190.066,197.577 190.400,197.091 190.400 C 196.605 190.400,196.521 190.734,196.691 192.000 C 196.832 193.051,196.750 193.600,196.453 193.600 C 196.201 193.600,196.000 194.228,196.000 195.013 C 196.000 195.800,195.771 196.513,195.482 196.624 C 195.148 196.752,195.021 197.317,195.125 198.211 C 195.224 199.059,195.115 199.600,194.844 199.600 C 194.593 199.600,194.400 200.295,194.400 201.200 C 194.400 202.080,194.220 202.800,194.000 202.800 C 193.780 202.800,193.600 203.520,193.600 204.400 C 193.600 205.280,193.420 206.000,193.200 206.000 C 192.980 206.000,192.800 206.900,192.800 208.000 C 192.800 209.100,192.620 210.000,192.400 210.000 C 192.180 210.000,192.000 210.731,192.000 211.624 C 192.000 212.604,191.842 213.149,191.600 213.000 C 191.358 212.851,191.200 213.396,191.200 214.376 C 191.200 215.269,191.020 216.000,190.800 216.000 C 190.580 216.000,190.400 216.720,190.400 217.600 C 190.400 218.480,190.220 219.200,190.000 219.200 C 189.780 219.200,189.600 219.920,189.600 220.800 C 189.600 221.680,189.420 222.400,189.200 222.400 C 188.980 222.400,188.800 223.120,188.800 224.000 C 188.800 224.880,188.620 225.600,188.400 225.600 C 188.180 225.600,188.000 226.219,188.000 226.976 C 188.000 227.733,187.820 228.464,187.600 228.600 C 187.380 228.736,187.200 229.456,187.200 230.200 C 187.200 230.944,187.020 231.664,186.800 231.800 C 186.580 231.936,186.400 232.847,186.400 233.824 C 186.400 234.801,186.220 235.600,186.000 235.600 C 185.780 235.600,185.600 236.309,185.600 237.176 C 185.600 238.043,185.420 238.864,185.200 239.000 C 184.980 239.136,184.800 239.856,184.800 240.600 C 184.800 241.344,184.620 242.064,184.400 242.200 C 184.180 242.336,184.000 243.067,184.000 243.824 C 184.000 244.581,183.820 245.200,183.600 245.200 C 183.380 245.200,183.200 245.819,183.200 246.576 C 183.200 247.333,183.020 248.064,182.800 248.200 C 182.580 248.336,182.400 249.236,182.400 250.200 C 182.400 251.164,182.220 252.064,182.000 252.200 C 181.780 252.336,181.600 254.124,181.600 256.184 L 181.600 259.920 183.040 261.360 C 183.832 262.152,184.732 262.800,185.040 262.800 C 185.348 262.800,185.600 262.980,185.600 263.200 C 185.600 263.435,187.000 263.600,189.000 263.600 C 191.000 263.600,192.400 263.435,192.400 263.200 C 192.400 262.980,192.676 262.800,193.013 262.800 C 193.899 262.800,196.400 260.168,196.400 259.237 C 196.400 258.803,196.580 258.336,196.800 258.200 C 197.020 258.064,197.200 257.344,197.200 256.600 C 197.200 255.856,197.380 255.136,197.600 255.000 C 197.820 254.864,198.000 254.324,198.000 253.800 C 198.000 253.276,198.180 252.736,198.400 252.600 C 198.620 252.464,198.800 251.553,198.800 250.576 C 198.800 249.599,198.980 248.800,199.200 248.800 C 199.420 248.800,199.600 248.080,199.600 247.200 C 199.600 246.320,199.780 245.600,200.000 245.600 C 200.220 245.600,200.400 244.891,200.400 244.024 C 200.400 243.157,200.580 242.336,200.800 242.200 C 201.020 242.064,201.200 241.333,201.200 240.576 C 201.200 239.819,201.380 239.200,201.600 239.200 C 201.820 239.200,202.000 238.581,202.000 237.824 C 202.000 237.067,202.180 236.336,202.400 236.200 C 202.620 236.064,202.800 235.344,202.800 234.600 C 202.800 233.856,202.980 233.136,203.200 233.000 C 203.420 232.864,203.600 232.163,203.600 231.443 C 203.600 230.723,203.730 230.004,203.888 229.845 C 204.047 229.687,204.123 228.937,204.057 228.179 C 203.989 227.387,204.122 226.800,204.369 226.800 C 204.613 226.800,204.800 226.019,204.800 225.000 C 204.800 224.010,204.980 223.200,205.200 223.200 C 205.420 223.200,205.600 222.480,205.600 221.600 C 205.600 220.720,205.780 220.000,206.000 220.000 C 206.220 220.000,206.400 219.299,206.400 218.443 C 206.400 217.510,206.615 216.803,206.936 216.680 C 207.289 216.544,207.408 216.037,207.284 215.193 C 207.164 214.372,207.291 213.791,207.640 213.575 C 207.976 213.367,208.137 212.699,208.061 211.820 C 207.990 210.997,208.120 210.400,208.369 210.400 C 208.606 210.400,208.800 209.680,208.800 208.800 C 208.800 207.920,208.980 207.200,209.200 207.200 C 209.420 207.200,209.600 206.480,209.600 205.600 C 209.600 204.720,209.780 204.000,210.000 204.000 C 210.220 204.000,210.400 203.370,210.400 202.600 C 210.400 201.830,210.580 201.200,210.800 201.200 C 211.020 201.200,211.200 200.480,211.200 199.600 C 211.200 198.720,211.380 198.000,211.600 198.000 C 211.820 198.000,212.000 197.100,212.000 196.000 C 212.000 194.900,212.180 194.000,212.400 194.000 C 212.620 194.000,212.800 193.381,212.800 192.624 C 212.800 191.867,212.980 191.136,213.200 191.000 C 213.420 190.864,213.600 190.144,213.600 189.400 C 213.600 188.656,213.780 187.936,214.000 187.800 C 214.220 187.664,214.400 186.944,214.400 186.200 C 214.400 185.456,214.580 184.736,214.800 184.600 C 215.020 184.464,215.200 183.733,215.200 182.976 C 215.200 182.219,215.380 181.600,215.600 181.600 C 215.820 181.600,216.000 180.880,216.000 180.000 C 216.000 179.120,216.180 178.400,216.400 178.400 C 216.620 178.400,216.800 177.691,216.800 176.824 C 216.800 175.957,216.980 175.136,217.200 175.000 C 217.420 174.864,217.600 174.133,217.600 173.376 C 217.600 172.619,217.780 172.000,218.000 172.000 C 218.220 172.000,218.400 171.201,218.400 170.224 C 218.400 169.247,218.580 168.336,218.800 168.200 C 219.021 168.063,219.195 166.308,219.189 164.276 C 219.178 160.454,217.727 157.600,215.795 157.600 C 215.468 157.600,215.200 157.420,215.200 157.200 C 215.200 156.961,213.667 156.800,211.400 156.800 C 209.133 156.800,207.600 156.961,207.600 157.200 M173.200 171.171 C 173.200 171.407,172.840 171.600,172.400 171.600 C 171.960 171.600,171.600 171.780,171.600 172.000 C 171.600 172.220,171.060 172.400,170.400 172.400 C 169.740 172.400,169.200 172.580,169.200 172.800 C 169.200 173.020,168.840 173.200,168.400 173.200 C 167.960 173.200,167.600 173.380,167.600 173.600 C 167.600 173.820,167.240 174.000,166.800 174.000 C 166.360 174.000,166.000 174.180,166.000 174.400 C 166.000 174.620,165.550 174.800,165.000 174.800 C 164.450 174.800,164.000 174.980,164.000 175.200 C 164.000 175.420,163.640 175.600,163.200 175.600 C 162.760 175.600,162.400 175.780,162.400 176.000 C 162.400 176.220,162.040 176.400,161.600 176.400 C 161.160 176.400,160.800 176.580,160.800 176.800 C 160.800 177.020,160.260 177.200,159.600 177.200 C 158.940 177.200,158.400 177.380,158.400 177.600 C 158.400 177.820,158.040 178.000,157.600 178.000 C 157.160 178.000,156.800 178.199,156.800 178.443 C 156.800 178.686,156.523 178.779,156.185 178.650 C 155.832 178.514,155.471 178.671,155.337 179.019 C 155.192 179.399,154.825 179.535,154.353 179.385 C 153.834 179.220,153.600 179.341,153.600 179.773 C 153.600 180.203,153.223 180.400,152.400 180.400 C 151.740 180.400,151.200 180.580,151.200 180.800 C 151.200 181.020,150.885 181.201,150.500 181.202 C 150.115 181.204,149.284 181.474,148.654 181.802 C 148.024 182.131,147.169 182.400,146.754 182.400 C 146.339 182.400,146.000 182.580,146.000 182.800 C 146.000 183.020,145.640 183.200,145.200 183.200 C 144.760 183.200,144.399 183.335,144.397 183.500 C 144.392 183.947,142.374 184.800,141.320 184.800 C 140.814 184.800,140.400 184.980,140.400 185.200 C 140.400 185.420,140.040 185.600,139.600 185.600 C 139.160 185.600,138.800 185.780,138.800 186.000 C 138.800 186.220,138.440 186.400,138.000 186.400 C 137.560 186.400,137.200 186.580,137.200 186.800 C 137.200 187.020,136.858 187.200,136.441 187.200 C 136.023 187.200,134.655 187.740,133.400 188.400 C 132.145 189.060,130.867 189.600,130.559 189.600 C 130.252 189.600,130.000 189.780,130.000 190.000 C 130.000 190.220,129.550 190.400,129.000 190.400 C 128.450 190.400,128.000 190.580,128.000 190.800 C 128.000 191.020,127.640 191.200,127.200 191.200 C 126.760 191.200,126.400 191.380,126.400 191.600 C 126.400 191.820,126.040 192.000,125.600 192.000 C 125.160 192.000,124.800 192.180,124.800 192.400 C 124.800 192.620,124.260 192.800,123.600 192.800 C 122.940 192.800,122.400 192.980,122.400 193.200 C 122.400 193.420,122.040 193.600,121.600 193.600 C 121.160 193.600,120.800 193.799,120.800 194.043 C 120.800 194.286,120.523 194.379,120.185 194.250 C 119.835 194.115,119.472 194.269,119.342 194.607 C 119.213 194.942,118.611 195.200,117.957 195.200 C 117.321 195.200,116.800 195.380,116.800 195.600 C 116.800 195.820,116.440 196.000,116.000 196.000 C 115.560 196.000,115.199 196.135,115.197 196.300 C 115.193 196.711,113.209 197.600,112.297 197.600 C 111.888 197.600,110.748 198.050,109.763 198.600 C 108.778 199.150,107.708 199.600,107.386 199.600 C 107.064 199.600,106.800 199.780,106.800 200.000 C 106.800 200.220,106.468 200.400,106.061 200.400 C 105.655 200.400,104.755 200.683,104.061 201.029 L 102.800 201.659 102.800 210.619 L 102.800 219.580 104.700 220.464 C 105.745 220.950,107.005 221.302,107.500 221.245 C 107.995 221.189,108.400 221.336,108.400 221.571 C 108.400 221.807,108.760 222.000,109.200 222.000 C 109.640 222.000,110.000 222.138,110.000 222.306 C 110.000 222.474,110.720 222.923,111.600 223.304 C 112.480 223.686,113.200 224.161,113.200 224.361 C 113.200 224.561,113.521 224.641,113.914 224.538 C 114.306 224.436,115.674 224.903,116.954 225.576 C 118.234 226.249,119.623 226.800,120.041 226.800 C 120.458 226.800,120.800 226.980,120.800 227.200 C 120.800 227.420,121.160 227.600,121.600 227.600 C 122.040 227.600,122.400 227.780,122.400 228.000 C 122.400 228.220,122.760 228.400,123.200 228.400 C 123.640 228.400,124.000 228.580,124.000 228.800 C 124.000 229.020,124.540 229.200,125.200 229.200 C 125.860 229.200,126.400 229.346,126.400 229.525 C 126.400 229.704,127.030 230.098,127.800 230.400 C 128.570 230.702,129.200 231.096,129.200 231.275 C 129.200 231.454,129.625 231.600,130.145 231.600 C 130.664 231.600,132.489 232.320,134.200 233.200 C 135.911 234.080,137.520 234.800,137.776 234.800 C 138.468 234.800,140.393 235.755,140.397 236.100 C 140.399 236.265,140.749 236.400,141.176 236.400 C 141.603 236.400,142.049 236.556,142.168 236.747 C 142.286 236.939,143.106 237.211,143.991 237.352 C 144.876 237.494,145.600 237.787,145.600 238.005 C 145.600 238.222,145.949 238.400,146.376 238.400 C 146.803 238.400,147.264 238.580,147.400 238.800 C 147.536 239.020,148.087 239.200,148.624 239.200 C 149.161 239.200,149.600 239.380,149.600 239.600 C 149.600 239.820,149.960 240.000,150.400 240.000 C 150.840 240.000,151.200 240.180,151.200 240.400 C 151.200 240.620,151.560 240.800,152.000 240.800 C 152.440 240.800,152.800 240.980,152.800 241.200 C 152.800 241.420,153.160 241.600,153.600 241.600 C 154.040 241.600,154.400 241.780,154.400 242.000 C 154.400 242.220,154.940 242.400,155.600 242.400 C 156.260 242.400,156.800 242.580,156.800 242.800 C 156.800 243.020,157.160 243.200,157.600 243.200 C 158.040 243.200,158.400 243.380,158.400 243.600 C 158.400 243.820,158.760 244.000,159.200 244.000 C 159.640 244.000,160.000 244.180,160.000 244.400 C 160.000 244.620,160.525 244.800,161.167 244.800 C 161.808 244.800,162.393 244.935,162.467 245.100 C 162.646 245.504,165.951 247.200,166.558 247.200 C 167.264 247.200,169.193 248.150,169.197 248.500 C 169.199 248.665,169.560 248.800,170.000 248.800 C 170.440 248.800,170.800 248.980,170.800 249.200 C 170.800 249.420,171.325 249.600,171.967 249.600 C 172.608 249.600,173.204 249.812,173.291 250.072 C 173.377 250.332,173.707 250.445,174.024 250.323 C 174.905 249.986,174.660 228.800,173.775 228.800 C 173.445 228.800,173.082 228.557,172.967 228.259 C 172.841 227.929,172.379 227.791,171.780 227.906 C 171.213 228.014,170.800 227.905,170.800 227.647 C 170.800 227.401,170.386 227.200,169.880 227.200 C 168.826 227.200,166.808 226.347,166.803 225.900 C 166.801 225.735,166.260 225.600,165.600 225.600 C 164.940 225.600,164.400 225.420,164.400 225.200 C 164.400 224.980,164.040 224.800,163.600 224.800 C 163.160 224.800,162.800 224.620,162.800 224.400 C 162.800 224.180,162.260 224.000,161.600 224.000 C 160.940 224.000,160.400 223.820,160.400 223.600 C 160.400 223.380,160.040 223.200,159.600 223.200 C 159.160 223.200,158.800 223.020,158.800 222.800 C 158.800 222.580,158.445 222.400,158.012 222.400 C 157.579 222.400,156.583 222.040,155.800 221.600 C 155.017 221.160,154.117 220.800,153.800 220.800 C 153.483 220.800,152.583 220.440,151.800 220.000 C 151.017 219.560,150.032 219.200,149.611 219.200 C 149.191 219.200,148.736 219.020,148.600 218.800 C 148.464 218.580,148.039 218.400,147.656 218.400 C 146.781 218.400,144.807 217.501,144.803 217.100 C 144.801 216.935,144.386 216.800,143.880 216.800 C 142.826 216.800,140.808 215.947,140.803 215.500 C 140.801 215.335,140.468 215.200,140.061 215.200 C 139.655 215.200,138.710 214.892,137.961 214.515 C 137.213 214.139,136.195 213.881,135.700 213.944 C 135.205 214.006,134.800 213.864,134.800 213.629 C 134.800 213.393,134.459 213.200,134.043 213.200 C 133.626 213.200,133.187 212.944,133.067 212.631 C 132.929 212.269,132.530 212.145,131.974 212.291 C 131.404 212.440,130.973 212.296,130.739 211.876 C 130.541 211.523,130.114 211.335,129.789 211.459 C 129.465 211.584,129.200 211.486,129.200 211.243 C 129.200 210.999,128.615 210.775,127.900 210.746 C 126.960 210.706,126.849 210.643,127.500 210.518 C 127.995 210.422,128.400 210.177,128.400 209.972 C 128.400 209.767,128.940 209.600,129.600 209.600 C 130.260 209.600,130.800 209.420,130.800 209.200 C 130.800 208.980,131.160 208.800,131.600 208.800 C 132.040 208.800,132.400 208.620,132.400 208.400 C 132.400 208.180,132.940 208.000,133.600 208.000 C 134.260 208.000,134.800 207.820,134.800 207.600 C 134.800 207.380,135.340 207.200,136.000 207.200 C 136.660 207.200,137.200 207.001,137.200 206.757 C 137.200 206.514,137.455 206.412,137.767 206.532 C 138.079 206.652,138.433 206.491,138.554 206.175 C 138.679 205.850,139.302 205.600,139.987 205.600 C 140.654 205.600,141.200 205.420,141.200 205.200 C 141.200 204.980,141.470 204.800,141.800 204.800 C 142.130 204.800,142.400 204.597,142.400 204.350 C 142.400 204.063,142.836 203.987,143.600 204.140 C 144.277 204.275,144.800 204.210,144.800 203.990 C 144.800 203.775,145.155 203.600,145.588 203.600 C 146.021 203.600,147.017 203.240,147.800 202.800 C 148.583 202.360,149.483 202.000,149.800 202.000 C 150.117 202.000,151.017 201.640,151.800 201.200 C 152.583 200.760,153.568 200.400,153.989 200.400 C 154.409 200.400,154.864 200.220,155.000 200.000 C 155.136 199.780,155.561 199.600,155.944 199.600 C 156.819 199.600,158.793 198.701,158.797 198.300 C 158.799 198.135,159.340 198.000,160.000 198.000 C 160.660 198.000,161.200 197.820,161.200 197.600 C 161.200 197.380,161.560 197.200,162.000 197.200 C 162.440 197.200,162.800 197.020,162.800 196.800 C 162.800 196.580,163.340 196.400,164.000 196.400 C 164.660 196.400,165.200 196.220,165.200 196.000 C 165.200 195.780,165.740 195.600,166.400 195.600 C 167.060 195.600,167.600 195.420,167.600 195.200 C 167.600 194.980,167.960 194.800,168.400 194.800 C 168.840 194.800,169.200 194.620,169.200 194.400 C 169.200 194.180,169.751 194.000,170.424 194.000 C 171.137 194.000,171.544 193.833,171.400 193.600 C 171.264 193.380,171.523 193.200,171.976 193.200 C 172.429 193.200,172.800 193.020,172.800 192.800 C 172.800 192.580,173.160 192.400,173.600 192.400 C 174.379 192.400,174.400 192.133,174.400 182.000 C 174.400 176.280,174.410 171.465,174.421 171.300 C 174.433 171.135,174.163 170.942,173.821 170.871 C 173.480 170.800,173.200 170.935,173.200 171.171 M226.400 182.000 C 226.400 192.133,226.421 192.400,227.200 192.400 C 227.640 192.400,228.000 192.580,228.000 192.800 C 228.000 193.020,228.371 193.200,228.824 193.200 C 229.277 193.200,229.536 193.380,229.400 193.600 C 229.256 193.833,229.663 194.000,230.376 194.000 C 231.049 194.000,231.600 194.180,231.600 194.400 C 231.600 194.620,231.960 194.800,232.400 194.800 C 232.840 194.800,233.200 194.980,233.200 195.200 C 233.200 195.420,233.740 195.600,234.400 195.600 C 235.060 195.600,235.600 195.780,235.600 196.000 C 235.600 196.220,236.140 196.400,236.800 196.400 C 237.460 196.400,238.000 196.580,238.000 196.800 C 238.000 197.020,238.360 197.200,238.800 197.200 C 239.240 197.200,239.600 197.380,239.600 197.600 C 239.600 197.820,240.140 198.000,240.800 198.000 C 241.460 198.000,242.000 198.180,242.000 198.400 C 242.000 198.620,242.360 198.800,242.800 198.800 C 243.240 198.800,243.600 198.980,243.600 199.200 C 243.600 199.420,244.039 199.600,244.576 199.600 C 245.113 199.600,245.664 199.780,245.800 200.000 C 245.936 200.220,246.391 200.400,246.811 200.400 C 247.232 200.400,248.217 200.760,249.000 201.200 C 249.783 201.640,250.683 202.000,251.000 202.000 C 251.317 202.000,252.217 202.360,253.000 202.800 C 253.783 203.240,254.768 203.600,255.189 203.600 C 255.609 203.600,256.059 203.772,256.189 203.983 C 256.319 204.193,256.690 204.264,257.013 204.140 C 257.377 204.000,257.600 204.155,257.600 204.547 C 257.600 205.037,257.871 205.126,258.800 204.940 C 259.564 204.787,260.000 204.863,260.000 205.150 C 260.000 205.398,260.431 205.600,260.957 205.600 C 261.484 205.600,262.017 205.867,262.142 206.193 C 262.271 206.529,262.635 206.685,262.981 206.552 C 263.325 206.420,263.691 206.572,263.817 206.899 C 263.959 207.270,264.395 207.413,265.020 207.294 C 265.587 207.186,266.000 207.295,266.000 207.553 C 266.000 207.799,266.349 208.000,266.776 208.000 C 267.203 208.000,267.664 208.180,267.800 208.400 C 267.936 208.620,268.487 208.800,269.024 208.800 C 269.561 208.800,270.000 208.980,270.000 209.200 C 270.000 209.420,270.540 209.600,271.200 209.600 C 271.860 209.600,272.400 209.767,272.400 209.972 C 272.400 210.177,272.805 210.422,273.300 210.518 L 274.200 210.691 273.300 210.746 C 272.805 210.775,272.400 211.001,272.400 211.247 C 272.400 211.511,271.979 211.613,271.368 211.496 C 270.698 211.368,270.260 211.500,270.117 211.872 C 269.996 212.188,269.655 212.353,269.359 212.240 C 269.063 212.126,268.659 212.323,268.461 212.676 C 268.227 213.096,267.796 213.240,267.226 213.091 C 266.659 212.943,266.271 213.071,266.124 213.454 C 265.999 213.780,265.656 213.953,265.361 213.840 C 265.067 213.727,264.719 213.807,264.589 214.017 C 264.459 214.228,263.913 214.400,263.376 214.400 C 262.839 214.400,262.400 214.580,262.400 214.800 C 262.400 215.020,262.040 215.200,261.600 215.200 C 261.160 215.200,260.800 215.380,260.800 215.600 C 260.800 215.820,260.361 216.000,259.824 216.000 C 259.287 216.000,258.736 216.180,258.600 216.400 C 258.464 216.620,258.003 216.800,257.576 216.800 C 257.149 216.800,256.800 216.980,256.800 217.200 C 256.800 217.420,256.445 217.600,256.012 217.600 C 255.579 217.600,254.583 217.960,253.800 218.400 C 253.017 218.840,252.032 219.200,251.611 219.200 C 251.191 219.200,250.736 219.380,250.600 219.600 C 250.464 219.820,250.009 220.000,249.589 220.000 C 249.168 220.000,248.183 220.360,247.400 220.800 C 246.617 221.240,245.747 221.600,245.468 221.600 C 244.741 221.600,242.807 222.544,242.803 222.900 C 242.801 223.065,242.260 223.200,241.600 223.200 C 240.940 223.200,240.400 223.380,240.400 223.600 C 240.400 223.820,240.040 224.000,239.600 224.000 C 239.160 224.000,238.800 224.180,238.800 224.400 C 238.800 224.620,238.260 224.800,237.600 224.800 C 236.940 224.800,236.399 224.935,236.397 225.100 C 236.393 225.501,234.419 226.400,233.544 226.400 C 233.161 226.400,232.736 226.580,232.600 226.800 C 232.464 227.020,232.009 227.200,231.589 227.200 C 231.168 227.200,230.183 227.560,229.400 228.000 C 228.617 228.440,227.618 228.800,227.181 228.800 C 226.406 228.800,226.389 229.056,226.493 239.500 L 226.600 250.200 227.500 250.328 C 227.995 250.398,228.400 250.263,228.400 250.028 C 228.400 249.793,228.760 249.600,229.200 249.600 C 229.640 249.600,230.000 249.420,230.000 249.200 C 230.000 248.980,230.360 248.800,230.800 248.800 C 231.240 248.800,231.600 248.620,231.600 248.400 C 231.600 248.180,231.942 248.000,232.359 248.000 C 232.777 248.000,234.145 247.460,235.400 246.800 C 236.655 246.140,238.113 245.600,238.641 245.600 C 239.168 245.600,239.600 245.420,239.600 245.200 C 239.600 244.980,239.870 244.800,240.200 244.800 C 240.530 244.800,240.800 244.620,240.800 244.400 C 240.800 244.180,241.160 244.000,241.600 244.000 C 242.040 244.000,242.400 243.820,242.400 243.600 C 242.400 243.380,242.940 243.200,243.600 243.200 C 244.260 243.200,244.800 243.020,244.800 242.800 C 244.800 242.580,245.160 242.400,245.600 242.400 C 246.040 242.400,246.400 242.220,246.400 242.000 C 246.400 241.780,246.760 241.600,247.200 241.600 C 247.640 241.600,248.000 241.401,248.000 241.157 C 248.000 240.914,248.277 240.821,248.615 240.950 C 248.965 241.085,249.328 240.931,249.458 240.593 C 249.587 240.258,250.189 240.000,250.843 240.000 C 251.479 240.000,252.000 239.801,252.000 239.557 C 252.000 239.314,252.265 239.216,252.589 239.341 C 252.914 239.465,253.319 239.349,253.489 239.083 C 253.922 238.410,255.451 237.600,256.295 237.598 C 256.683 237.597,257.886 237.147,258.968 236.598 C 260.050 236.049,261.175 235.600,261.468 235.600 C 261.761 235.600,262.000 235.420,262.000 235.200 C 262.000 234.980,262.342 234.800,262.759 234.800 C 263.177 234.800,264.545 234.260,265.800 233.600 C 267.055 232.940,268.412 232.400,268.817 232.400 C 269.222 232.400,269.664 232.220,269.800 232.000 C 269.936 231.780,270.397 231.600,270.824 231.600 C 271.251 231.600,271.601 231.465,271.603 231.300 C 271.607 230.894,273.586 230.000,274.480 230.000 C 274.876 230.000,275.200 229.820,275.200 229.600 C 275.200 229.380,275.560 229.200,276.000 229.200 C 276.440 229.200,276.800 229.020,276.800 228.800 C 276.800 228.580,277.160 228.400,277.600 228.400 C 278.040 228.400,278.400 228.220,278.400 228.000 C 278.400 227.780,278.760 227.600,279.200 227.600 C 279.640 227.600,280.000 227.420,280.000 227.200 C 280.000 226.980,280.525 226.800,281.167 226.800 C 281.808 226.800,282.393 226.665,282.467 226.500 C 282.685 226.009,286.016 224.400,286.814 224.400 C 287.220 224.400,287.672 224.208,287.817 223.973 C 287.962 223.738,288.318 223.636,288.607 223.747 C 288.897 223.859,289.233 223.691,289.354 223.375 C 289.476 223.059,289.941 222.800,290.387 222.800 C 290.834 222.800,291.200 222.620,291.200 222.400 C 291.200 222.180,291.650 222.000,292.200 222.000 C 292.750 222.000,293.200 221.808,293.200 221.573 C 293.200 221.328,293.541 221.254,294.000 221.400 C 294.440 221.540,294.800 221.504,294.800 221.321 C 294.800 221.138,295.523 220.675,296.408 220.292 L 298.015 219.596 297.908 210.498 L 297.800 201.400 296.700 201.273 C 296.095 201.204,295.600 200.979,295.600 200.773 C 295.600 200.568,295.240 200.400,294.800 200.400 C 294.360 200.400,294.000 200.220,294.000 200.000 C 294.000 199.780,293.651 199.600,293.224 199.600 C 292.797 199.600,292.336 199.420,292.200 199.200 C 292.064 198.980,291.513 198.800,290.976 198.800 C 290.439 198.800,290.000 198.640,290.000 198.445 C 290.000 198.249,289.387 197.974,288.639 197.834 C 287.890 197.693,287.184 197.335,287.070 197.039 C 286.940 196.700,286.479 196.572,285.832 196.696 C 285.221 196.813,284.800 196.711,284.800 196.447 C 284.800 196.201,284.459 196.000,284.043 196.000 C 283.626 196.000,283.183 195.733,283.058 195.407 C 282.933 195.080,282.577 194.911,282.267 195.030 C 281.957 195.149,281.604 194.988,281.483 194.672 C 281.340 194.300,280.902 194.168,280.232 194.296 C 279.621 194.413,279.200 194.311,279.200 194.047 C 279.200 193.801,278.840 193.600,278.400 193.600 C 277.960 193.600,277.600 193.420,277.600 193.200 C 277.600 192.980,277.240 192.800,276.800 192.800 C 276.360 192.800,276.000 192.620,276.000 192.400 C 276.000 192.180,275.640 192.000,275.200 192.000 C 274.760 192.000,274.400 191.820,274.400 191.600 C 274.400 191.380,273.950 191.200,273.400 191.200 C 272.850 191.200,272.400 191.020,272.400 190.800 C 272.400 190.580,272.040 190.400,271.600 190.400 C 271.160 190.400,270.800 190.220,270.800 190.000 C 270.800 189.780,270.451 189.600,270.024 189.600 C 269.597 189.600,269.136 189.420,269.000 189.200 C 268.864 188.980,268.313 188.800,267.776 188.800 C 267.239 188.800,266.800 188.620,266.800 188.400 C 266.800 188.180,266.440 188.000,266.000 188.000 C 265.560 188.000,265.200 187.820,265.200 187.600 C 265.200 187.380,264.840 187.200,264.400 187.200 C 263.960 187.200,263.600 187.020,263.600 186.800 C 263.600 186.580,263.060 186.400,262.400 186.400 C 261.740 186.400,261.200 186.220,261.200 186.000 C 261.200 185.780,260.966 185.600,260.680 185.600 C 259.944 185.600,258.007 184.659,258.003 184.300 C 258.001 184.135,257.475 184.000,256.833 184.000 C 256.192 184.000,255.607 183.865,255.533 183.700 C 255.315 183.209,251.984 181.600,251.186 181.600 C 250.780 181.600,250.341 181.428,250.211 181.217 C 250.081 181.007,249.710 180.936,249.387 181.060 C 249.015 181.203,248.800 181.040,248.800 180.616 C 248.800 180.142,248.580 180.016,248.047 180.185 C 247.590 180.330,247.210 180.203,247.079 179.861 C 246.940 179.500,246.495 179.369,245.832 179.496 C 245.221 179.613,244.800 179.511,244.800 179.247 C 244.800 179.001,244.440 178.800,244.000 178.800 C 243.560 178.800,243.200 178.620,243.200 178.400 C 243.200 178.180,242.840 178.000,242.400 178.000 C 241.960 178.000,241.600 177.820,241.600 177.600 C 241.600 177.380,241.060 177.200,240.400 177.200 C 239.740 177.200,239.200 177.020,239.200 176.800 C 239.200 176.580,238.840 176.400,238.400 176.400 C 237.960 176.400,237.600 176.254,237.600 176.075 C 237.600 175.896,236.970 175.502,236.200 175.200 C 235.430 174.898,234.800 174.504,234.800 174.325 C 234.800 174.146,234.260 174.000,233.600 174.000 C 232.940 174.000,232.400 173.820,232.400 173.600 C 232.400 173.380,232.040 173.200,231.600 173.200 C 231.160 173.200,230.800 173.020,230.800 172.800 C 230.800 172.580,230.440 172.400,230.000 172.400 C 229.560 172.400,229.200 172.220,229.200 172.000 C 229.200 171.780,228.570 171.600,227.800 171.600 L 226.400 171.600 226.400 182.000 " stroke="none" fill="#c0c0c0" fill-rule="evenodd"></path><path id="path2" d="M257.500 72.282 C 257.995 72.378,258.805 72.378,259.300 72.282 C 259.795 72.187,259.390 72.109,258.400 72.109 C 257.410 72.109,257.005 72.187,257.500 72.282 M292.500 72.287 C 293.105 72.378,294.095 72.378,294.700 72.287 C 295.305 72.195,294.810 72.120,293.600 72.120 C 292.390 72.120,291.895 72.195,292.500 72.287 M328.800 72.276 C 329.570 72.358,330.581 72.617,331.047 72.852 C 331.514 73.087,332.234 73.192,332.647 73.086 C 333.185 72.948,333.093 72.880,332.324 72.846 C 331.732 72.821,331.136 72.620,331.000 72.400 C 330.864 72.180,329.998 72.029,329.076 72.064 C 327.487 72.125,327.473 72.136,328.800 72.276 M253.600 73.433 C 252.984 73.775,252.838 73.990,253.220 73.994 C 253.561 73.997,254.011 73.837,254.220 73.639 C 254.429 73.440,254.960 73.191,255.400 73.085 L 256.200 72.893 255.400 72.886 C 254.960 72.882,254.150 73.128,253.600 73.433 M260.400 72.956 C 260.400 73.042,261.017 73.185,261.772 73.273 C 262.527 73.361,263.056 73.290,262.948 73.116 C 262.755 72.803,260.400 72.655,260.400 72.956 M325.505 73.083 C 326.002 73.179,326.722 73.175,327.105 73.075 C 327.487 72.975,327.080 72.896,326.200 72.901 C 325.320 72.905,325.007 72.987,325.505 73.083 M255.959 96.521 C 256.136 96.697,257.433 96.785,258.841 96.716 L 261.400 96.591 258.518 96.395 C 256.933 96.288,255.781 96.344,255.959 96.521 M293.800 96.400 L 291.000 96.659 293.676 96.729 C 295.148 96.768,296.464 96.620,296.600 96.400 C 296.736 96.180,296.792 96.032,296.724 96.071 C 296.656 96.109,295.340 96.258,293.800 96.400 M327.300 96.691 C 328.125 96.778,329.475 96.778,330.300 96.691 C 331.125 96.605,330.450 96.534,328.800 96.534 C 327.150 96.534,326.475 96.605,327.300 96.691 M174.574 181.800 C 174.575 187.520,174.631 189.804,174.699 186.876 C 174.768 183.948,174.767 179.268,174.699 176.476 C 174.630 173.684,174.574 176.080,174.574 181.800 M197.293 189.200 C 197.293 189.970,197.375 190.285,197.476 189.900 C 197.576 189.515,197.576 188.885,197.476 188.500 C 197.375 188.115,197.293 188.430,197.293 189.200 M196.493 192.400 C 196.493 193.170,196.575 193.485,196.676 193.100 C 196.776 192.715,196.776 192.085,196.676 191.700 C 196.575 191.315,196.493 191.630,196.493 192.400 M195.568 195.300 C 195.449 196.160,195.510 196.650,195.712 196.448 C 195.905 196.255,195.998 195.581,195.919 194.949 C 195.787 193.891,195.759 193.919,195.568 195.300 M113.800 196.800 C 113.664 197.020,113.068 197.225,112.476 197.254 C 111.658 197.296,111.597 197.348,112.221 197.472 C 112.672 197.562,113.572 197.358,114.221 197.020 C 114.952 196.639,115.143 196.404,114.724 196.402 C 114.352 196.401,113.936 196.580,113.800 196.800 M194.893 198.400 C 194.893 199.170,194.975 199.485,195.076 199.100 C 195.176 198.715,195.176 198.085,195.076 197.700 C 194.975 197.315,194.893 197.630,194.893 198.400 M194.101 201.400 C 194.105 202.280,194.187 202.593,194.283 202.095 C 194.379 201.598,194.375 200.878,194.275 200.495 C 194.175 200.113,194.096 200.520,194.101 201.400 M138.645 205.928 C 138.533 206.108,138.973 206.177,139.621 206.082 C 140.270 205.987,140.800 205.840,140.800 205.755 C 140.800 205.450,138.843 205.607,138.645 205.928 M127.300 210.676 C 127.685 210.776,128.315 210.776,128.700 210.676 C 129.085 210.575,128.770 210.493,128.000 210.493 C 127.230 210.493,126.915 210.575,127.300 210.676 M208.093 211.600 C 208.093 212.370,208.175 212.685,208.276 212.300 C 208.376 211.915,208.376 211.285,208.276 210.900 C 208.175 210.515,208.093 210.830,208.093 211.600 M207.293 214.800 C 207.293 215.570,207.375 215.885,207.476 215.500 C 207.576 215.115,207.576 214.485,207.476 214.100 C 207.375 213.715,207.293 214.030,207.293 214.800 M206.501 218.200 C 206.505 219.080,206.587 219.393,206.683 218.895 C 206.779 218.398,206.775 217.678,206.675 217.295 C 206.575 216.913,206.496 217.320,206.501 218.200 M205.701 221.400 C 205.705 222.280,205.787 222.593,205.883 222.095 C 205.979 221.598,205.975 220.878,205.875 220.495 C 205.775 220.113,205.696 220.520,205.701 221.400 M204.914 225.000 C 204.917 226.100,204.995 226.503,205.087 225.895 C 205.179 225.286,205.177 224.386,205.082 223.895 C 204.987 223.403,204.911 223.900,204.914 225.000 M287.800 224.000 C 287.664 224.220,287.124 224.400,286.600 224.400 C 286.076 224.400,285.552 224.554,285.436 224.742 C 285.127 225.242,287.266 224.776,288.189 224.142 C 288.623 223.844,288.769 223.600,288.513 223.600 C 288.257 223.600,287.936 223.780,287.800 224.000 M204.093 228.000 C 204.093 228.770,204.175 229.085,204.276 228.700 C 204.376 228.315,204.376 227.685,204.276 227.300 C 204.175 226.915,204.093 227.230,204.093 228.000 M174.574 239.400 C 174.575 245.120,174.631 247.404,174.699 244.476 C 174.768 241.548,174.767 236.868,174.699 234.076 C 174.630 231.284,174.574 233.680,174.574 239.400 M256.489 237.484 C 255.176 237.736,253.232 238.794,254.076 238.798 C 254.448 238.799,254.864 238.620,255.000 238.400 C 255.136 238.180,255.676 238.000,256.200 238.000 C 256.724 238.000,257.264 237.820,257.400 237.600 C 257.536 237.380,257.592 237.225,257.524 237.254 C 257.456 237.284,256.990 237.388,256.489 237.484 M146.979 239.020 C 147.628 239.358,148.528 239.562,148.979 239.472 C 149.603 239.348,149.542 239.296,148.724 239.254 C 148.132 239.225,147.536 239.020,147.400 238.800 C 147.264 238.580,146.848 238.401,146.476 238.402 C 146.057 238.404,146.248 238.639,146.979 239.020 " stroke="none" fill="#cacaca" fill-rule="evenodd"></path><path id="path3" d="" stroke="none" fill="#d8d8d8" fill-rule="evenodd"></path><path id="path4" d="" stroke="none" fill="#ffffff" fill-rule="evenodd"></path></g></svg>