<svg id="svg" version="1.1" width="400" height="400" viewBox="0 0 400 400" xmlns="http://www.w3.org/2000/svg" xmlns:xlink="http://www.w3.org/1999/xlink" ><g id="svgg"><path id="path0" d="M52.875 55.832 C 47.842 57.808,47.238 59.837,47.726 73.125 C 49.805 129.684,67.527 209.126,96.657 292.473 C 98.358 297.339,99.750 301.360,99.750 301.407 C 99.750 301.455,82.172 301.523,60.688 301.559 L 21.625 301.625 20.199 302.325 C 16.489 304.147,14.784 308.284,16.109 312.250 C 16.760 314.197,36.407 333.941,42.753 339.025 C 54.750 348.637,68.640 354.494,84.625 356.680 C 88.940 357.271,266.494 357.380,271.375 356.796 C 287.849 354.822,302.040 348.928,314.618 338.833 C 319.131 335.211,339.857 314.717,340.654 313.089 C 342.591 309.129,341.054 304.496,337.141 302.500 L 335.426 301.625 296.350 301.559 L 257.274 301.494 258.161 299.059 C 259.741 294.725,266.164 275.431,268.399 268.307 C 269.595 264.494,270.585 261.357,270.599 261.335 C 270.613 261.312,273.421 260.658,276.837 259.880 C 312.479 251.768,344.474 236.789,361.674 220.163 C 379.632 202.805,385.496 180.623,377.578 160.000 C 366.486 131.111,332.568 118.528,304.813 133.006 C 303.541 133.669,302.500 134.136,302.500 134.044 C 302.501 133.951,302.889 131.569,303.362 128.750 C 308.148 100.288,311.006 64.180,308.802 60.051 C 307.918 58.396,306.594 57.083,305.040 56.320 L 303.625 55.625 178.625 55.581 C 83.183 55.547,53.448 55.607,52.875 55.832 M292.407 75.813 C 290.309 129.110,270.204 217.396,242.293 295.875 L 240.337 301.375 178.582 301.438 L 116.828 301.501 115.761 298.438 C 90.894 227.037,72.538 153.116,66.765 101.125 C 65.657 91.153,65.303 86.654,64.627 73.938 L 64.497 71.500 178.537 71.500 L 292.576 71.500 292.407 75.813 M336.750 143.626 C 361.406 149.012,372.687 176.414,359.187 198.125 C 347.877 216.313,318.925 232.554,278.813 243.211 C 277.266 243.622,276.000 243.902,276.000 243.833 C 276.000 243.764,277.514 238.401,279.364 231.916 C 285.541 210.261,290.947 189.276,294.976 171.319 C 296.761 163.361,297.115 162.081,297.892 160.755 C 303.353 151.437,313.587 144.883,325.375 143.153 C 327.084 142.902,334.928 143.229,336.750 143.626 M310.500 321.079 C 299.046 332.346,286.809 338.457,271.250 340.679 C 268.297 341.100,263.190 341.125,178.375 341.125 L 88.625 341.125 85.000 340.554 C 69.607 338.131,57.357 331.837,46.254 320.646 L 43.133 317.500 178.629 317.507 L 314.125 317.513 310.500 321.079 " stroke="none" fill="#cccccc" fill-rule="evenodd"></path></g></svg>