<svg id="svg" version="1.1" width="400" height="400" viewBox="0 0 400 400" xmlns="http://www.w3.org/2000/svg" xmlns:xlink="http://www.w3.org/1999/xlink" ><g id="svgg"><path id="path0" d="M162.400 79.891 L 125.100 109.760 125.049 92.380 L 124.998 75.000 99.999 75.000 L 75.000 75.000 74.985 112.450 L 74.970 149.900 62.494 159.800 C 55.632 165.245,50.013 169.791,50.009 169.902 C 50.004 170.013,52.008 172.110,54.462 174.562 L 58.925 179.021 129.462 122.590 L 200.000 66.160 270.538 122.590 L 341.075 179.021 345.538 174.562 C 347.992 172.110,349.996 170.013,349.991 169.902 C 349.980 169.622,200.422 50.109,200.023 50.061 C 199.845 50.039,182.915 63.463,162.400 79.891 M137.453 137.350 L 75.007 187.300 75.003 268.650 L 75.000 350.000 118.800 350.000 L 162.600 350.000 162.600 300.000 L 162.600 250.000 200.000 250.000 L 237.400 250.000 237.400 300.000 L 237.400 350.000 281.200 350.000 L 325.000 350.000 324.997 268.650 L 324.993 187.300 262.617 137.407 C 228.311 109.966,200.165 87.488,200.071 87.457 C 199.977 87.426,171.799 109.878,137.453 137.350 M112.397 103.750 L 112.394 119.900 100.268 129.600 C 93.598 134.935,88.020 139.372,87.871 139.460 C 87.644 139.594,87.600 135.424,87.600 113.610 L 87.600 87.600 100.000 87.600 L 112.400 87.600 112.397 103.750 M256.386 148.789 L 312.400 193.601 312.400 265.500 L 312.400 337.400 281.200 337.400 L 250.000 337.400 250.000 287.400 L 250.000 237.400 200.000 237.400 L 150.000 237.400 150.000 287.400 L 150.000 337.400 118.800 337.400 L 87.600 337.400 87.600 265.500 L 87.600 193.601 143.735 148.692 C 174.609 123.993,199.983 103.827,200.121 103.880 C 200.259 103.933,225.578 124.142,256.386 148.789 " stroke="none" fill="#c0c0c0" fill-rule="evenodd"></path></g></svg>