<svg id="svg" version="1.1" width="400" height="400" viewBox="0 0 400 400" xmlns="http://www.w3.org/2000/svg" xmlns:xlink="http://www.w3.org/1999/xlink" ><g id="svgg"><path id="path0" d="" stroke="none" fill="#b6b6b6" fill-rule="evenodd"></path><path id="path1" d="M87.200 8.000 C 87.200 8.220,86.221 8.400,85.024 8.400 C 83.827 8.400,82.736 8.580,82.600 8.800 C 82.464 9.020,81.913 9.200,81.376 9.200 C 80.839 9.200,80.400 9.380,80.400 9.600 C 80.400 9.820,79.986 10.000,79.480 10.000 C 78.426 10.000,76.408 10.853,76.403 11.300 C 76.401 11.465,76.106 11.600,75.747 11.600 C 75.388 11.600,74.767 11.977,74.368 12.437 C 73.969 12.897,73.477 13.171,73.275 13.046 C 73.072 12.921,72.585 13.175,72.191 13.609 C 71.798 14.044,71.275 14.400,71.029 14.400 C 70.458 14.400,64.400 20.474,64.400 21.047 C 64.400 21.283,64.044 21.798,63.609 22.191 C 63.175 22.585,62.921 23.072,63.046 23.275 C 63.171 23.477,62.897 23.969,62.437 24.368 C 61.977 24.767,61.600 25.388,61.600 25.747 C 61.600 26.106,61.465 26.401,61.300 26.403 C 60.853 26.408,60.000 28.426,60.000 29.480 C 60.000 29.986,59.820 30.400,59.600 30.400 C 59.380 30.400,59.200 30.839,59.200 31.376 C 59.200 31.913,59.020 32.464,58.800 32.600 C 58.580 32.736,58.400 33.827,58.400 35.024 C 58.400 36.221,58.220 37.200,58.000 37.200 C 57.734 37.200,57.600 91.867,57.600 200.400 C 57.600 308.933,57.734 363.600,58.000 363.600 C 58.220 363.600,58.400 364.399,58.400 365.376 C 58.400 366.353,58.580 367.264,58.800 367.400 C 59.020 367.536,59.200 368.076,59.200 368.600 C 59.200 369.124,59.380 369.664,59.600 369.800 C 59.820 369.936,60.000 370.380,60.000 370.786 C 60.000 371.584,61.609 374.915,62.100 375.133 C 62.265 375.207,62.400 375.612,62.400 376.033 C 62.400 376.455,62.591 376.800,62.824 376.800 C 63.057 376.800,63.156 376.947,63.045 377.127 C 62.934 377.307,63.193 377.707,63.621 378.015 C 64.050 378.324,64.400 378.766,64.400 378.998 C 64.400 379.566,70.499 385.600,71.073 385.600 C 71.324 385.600,71.983 386.139,72.537 386.798 C 73.180 387.562,73.772 387.909,74.172 387.755 C 74.579 387.599,74.800 387.736,74.800 388.145 C 74.800 388.558,75.020 388.690,75.440 388.529 C 75.793 388.394,76.198 388.445,76.340 388.642 C 76.787 389.258,78.353 390.000,79.207 390.000 C 79.657 390.000,80.118 390.243,80.233 390.541 C 80.359 390.871,80.821 391.009,81.420 390.894 C 81.987 390.786,82.400 390.895,82.400 391.153 C 82.400 391.433,83.300 391.600,84.800 391.600 C 86.133 391.600,87.200 391.778,87.200 392.000 C 87.200 392.266,125.067 392.400,200.000 392.400 C 274.933 392.400,312.800 392.266,312.800 392.000 C 312.800 391.778,313.867 391.600,315.200 391.600 C 316.533 391.600,317.600 391.422,317.600 391.200 C 317.600 390.980,318.140 390.800,318.800 390.800 C 319.460 390.800,320.000 390.599,320.000 390.353 C 320.000 390.095,320.413 389.986,320.980 390.094 C 321.579 390.209,322.041 390.071,322.167 389.741 C 322.282 389.443,322.741 389.200,323.187 389.200 C 323.634 389.200,324.000 389.020,324.000 388.800 C 324.000 388.580,324.270 388.400,324.600 388.400 C 324.930 388.400,325.200 388.223,325.200 388.008 C 325.200 387.792,325.695 387.493,326.300 387.344 C 326.905 387.194,327.691 386.741,328.047 386.336 C 328.403 385.931,328.866 385.600,329.076 385.600 C 329.575 385.600,335.600 379.575,335.600 379.076 C 335.600 378.866,335.931 378.403,336.336 378.047 C 336.741 377.691,337.194 376.905,337.344 376.300 C 337.493 375.695,337.792 375.200,338.008 375.200 C 338.223 375.200,338.400 374.930,338.400 374.600 C 338.400 374.270,338.580 374.000,338.800 374.000 C 339.020 374.000,339.200 373.634,339.200 373.187 C 339.200 372.741,339.443 372.282,339.741 372.167 C 340.071 372.041,340.209 371.579,340.094 370.980 C 339.986 370.413,340.095 370.000,340.353 370.000 C 340.599 370.000,340.800 369.460,340.800 368.800 C 340.800 368.140,340.980 367.600,341.200 367.600 C 341.422 367.600,341.600 366.533,341.600 365.200 C 341.600 363.867,341.778 362.800,342.000 362.800 C 342.266 362.800,342.400 318.333,342.400 230.200 C 342.400 142.067,342.266 97.600,342.000 97.600 C 341.780 97.600,341.600 97.351,341.600 97.046 C 341.600 96.072,340.520 94.367,339.049 93.020 C 338.264 92.300,337.667 91.642,337.723 91.556 C 337.778 91.470,335.433 89.032,332.512 86.139 C 329.590 83.245,327.200 80.945,327.200 81.027 C 327.200 81.110,325.756 79.697,323.991 77.889 C 320.965 74.788,313.991 67.779,307.498 61.315 C 305.904 59.728,302.125 55.916,299.100 52.844 C 296.075 49.771,293.600 47.326,293.600 47.411 C 293.600 47.495,292.283 46.267,290.672 44.682 C 289.062 43.097,287.766 41.710,287.791 41.600 C 287.817 41.490,285.444 39.032,282.519 36.139 C 279.594 33.245,277.200 30.945,277.200 31.027 C 277.200 31.110,275.756 29.697,273.991 27.889 C 270.872 24.692,262.692 16.483,257.768 11.608 C 256.431 10.284,255.036 9.200,254.668 9.200 C 254.301 9.200,254.000 9.020,254.000 8.800 C 254.000 8.580,253.730 8.400,253.400 8.400 C 253.070 8.400,252.800 8.220,252.800 8.000 C 252.800 7.735,224.933 7.600,170.000 7.600 C 115.067 7.600,87.200 7.735,87.200 8.000 M241.200 64.400 C 241.200 90.267,241.336 103.600,241.600 103.600 C 241.820 103.600,242.000 103.870,242.000 104.200 C 242.000 104.530,242.180 104.800,242.400 104.800 C 242.620 104.800,242.800 105.083,242.800 105.429 C 242.800 106.246,243.413 106.800,245.538 107.900 L 247.276 108.800 286.038 108.800 L 324.800 108.800 324.800 233.200 C 324.800 315.867,324.666 357.600,324.400 357.600 C 324.174 357.600,324.000 358.733,324.000 360.200 C 324.000 361.667,323.826 362.800,323.600 362.800 C 323.380 362.800,323.200 363.039,323.200 363.332 C 323.200 366.337,316.329 373.200,313.321 373.200 C 313.035 373.200,312.800 373.380,312.800 373.600 C 312.800 373.826,311.667 374.000,310.200 374.000 C 308.733 374.000,307.600 374.174,307.600 374.400 C 307.600 374.666,271.467 374.800,200.000 374.800 C 128.533 374.800,92.400 374.666,92.400 374.400 C 92.400 374.174,91.267 374.000,89.800 374.000 C 88.333 374.000,87.200 373.826,87.200 373.600 C 87.200 373.380,86.947 373.200,86.638 373.200 C 84.788 373.200,78.400 368.116,78.400 366.643 C 78.400 366.289,78.220 366.000,78.000 366.000 C 77.780 366.000,77.600 365.640,77.600 365.200 C 77.600 364.760,77.420 364.400,77.200 364.400 C 76.980 364.400,76.800 364.130,76.800 363.800 C 76.800 363.470,76.620 363.200,76.400 363.200 C 76.171 363.200,76.000 362.000,76.000 360.400 C 76.000 358.800,75.829 357.600,75.600 357.600 C 75.334 357.600,75.200 304.800,75.200 200.000 C 75.200 95.200,75.334 42.400,75.600 42.400 C 75.821 42.400,76.000 41.360,76.000 40.080 C 76.000 37.870,76.656 35.610,77.300 35.603 C 77.465 35.601,77.600 35.240,77.600 34.800 C 77.600 34.360,77.780 34.000,78.000 34.000 C 78.220 34.000,78.400 33.726,78.400 33.391 C 78.400 32.599,82.599 28.400,83.391 28.400 C 83.726 28.400,84.000 28.220,84.000 28.000 C 84.000 27.780,84.360 27.600,84.800 27.600 C 85.240 27.600,85.601 27.465,85.603 27.300 C 85.610 26.656,87.870 26.000,90.080 26.000 C 91.360 26.000,92.400 25.821,92.400 25.600 C 92.400 25.335,117.467 25.200,166.800 25.200 L 241.200 25.200 241.200 64.400 M263.818 43.600 C 263.792 43.710,266.343 46.343,269.486 49.451 C 272.629 52.559,275.200 55.035,275.200 54.954 C 275.200 54.872,276.464 56.109,278.009 57.703 C 283.981 63.863,291.600 71.536,291.600 71.389 C 291.600 71.305,292.915 72.533,294.522 74.118 C 296.130 75.703,297.412 77.053,297.371 77.118 C 297.296 77.238,307.805 87.714,309.090 88.800 C 309.480 89.130,310.143 89.805,310.562 90.300 L 311.324 91.200 285.062 91.200 L 258.800 91.200 258.800 64.834 L 258.800 38.468 261.332 40.934 C 262.724 42.290,263.843 43.490,263.818 43.600 M120.800 175.200 C 120.800 175.420,120.545 175.600,120.234 175.600 C 119.599 175.600,117.265 177.804,116.500 179.125 C 116.213 179.621,116.000 181.359,116.000 183.200 C 116.000 186.716,116.207 187.251,118.576 189.863 C 119.722 191.127,120.458 191.600,121.276 191.600 C 121.894 191.600,122.400 191.780,122.400 192.000 C 122.400 192.265,148.533 192.400,200.000 192.400 C 251.467 192.400,277.600 192.265,277.600 192.000 C 277.600 191.780,278.095 191.595,278.700 191.589 C 279.933 191.577,283.200 188.866,283.200 187.855 C 283.200 187.521,283.380 187.136,283.600 187.000 C 283.820 186.864,284.000 185.143,284.000 183.176 C 284.000 181.059,283.837 179.600,283.600 179.600 C 283.380 179.600,283.200 179.284,283.200 178.897 C 283.200 178.073,280.640 175.600,279.787 175.600 C 279.464 175.600,279.200 175.420,279.200 175.200 C 279.200 174.935,252.533 174.800,200.000 174.800 C 147.467 174.800,120.800 174.935,120.800 175.200 M121.600 241.600 C 121.600 241.820,121.240 242.000,120.800 242.000 C 120.360 242.000,120.000 242.136,120.000 242.302 C 120.000 242.469,119.460 242.844,118.800 243.136 C 118.069 243.459,117.600 243.967,117.600 244.434 C 117.600 244.855,117.465 245.201,117.300 245.203 C 116.626 245.210,116.000 247.519,116.000 250.000 C 116.000 252.481,116.626 254.790,117.300 254.797 C 117.465 254.799,117.600 255.068,117.600 255.395 C 117.600 256.244,118.826 257.565,119.407 257.342 C 119.676 257.239,120.003 257.431,120.133 257.770 C 120.270 258.126,120.629 258.287,120.985 258.150 C 121.323 258.021,121.600 258.114,121.600 258.357 C 121.600 258.679,142.949 258.800,200.000 258.800 C 257.051 258.800,278.400 258.679,278.400 258.357 C 278.400 258.114,278.665 258.016,278.989 258.141 C 279.316 258.266,279.749 258.063,279.959 257.687 C 280.169 257.313,280.474 257.141,280.638 257.304 C 281.016 257.682,282.400 256.452,282.400 255.738 C 282.400 255.442,282.580 255.200,282.800 255.200 C 283.020 255.200,283.200 254.851,283.200 254.424 C 283.200 253.997,283.380 253.536,283.600 253.400 C 283.820 253.264,284.000 251.723,284.000 249.976 C 284.000 248.125,283.833 246.800,283.600 246.800 C 283.380 246.800,283.200 246.528,283.200 246.195 C 283.200 244.906,281.605 242.800,280.629 242.800 C 280.283 242.800,280.000 242.620,280.000 242.400 C 280.000 242.180,279.640 242.000,279.200 242.000 C 278.760 242.000,278.400 241.820,278.400 241.600 C 278.400 241.335,252.000 241.200,200.000 241.200 C 148.000 241.200,121.600 241.335,121.600 241.600 M122.400 308.000 C 122.400 308.220,121.955 308.400,121.411 308.400 C 120.420 308.400,117.559 310.926,116.500 312.735 C 116.212 313.226,116.000 314.953,116.000 316.800 C 116.000 318.646,116.213 320.375,116.500 320.867 C 117.492 322.566,119.714 324.731,120.253 324.524 C 120.554 324.409,120.800 324.514,120.800 324.757 C 120.800 325.079,142.364 325.200,200.000 325.200 C 254.751 325.200,279.200 325.071,279.200 324.782 C 279.200 324.553,279.439 324.418,279.731 324.482 C 280.633 324.682,283.200 322.132,283.200 321.036 C 283.200 320.492,283.380 319.936,283.600 319.800 C 283.820 319.664,284.000 318.123,284.000 316.376 C 284.000 314.525,283.833 313.200,283.600 313.200 C 283.380 313.200,283.200 312.874,283.200 312.476 C 283.200 311.419,279.784 308.400,278.589 308.400 C 278.045 308.400,277.600 308.220,277.600 308.000 C 277.600 307.735,251.467 307.600,200.000 307.600 C 148.533 307.600,122.400 307.735,122.400 308.000 " stroke="none" fill="#c0c0c0" fill-rule="evenodd"></path><path id="path2" d="" stroke="none" fill="#cacaca" fill-rule="evenodd"></path><path id="path3" d="" stroke="none" fill="#d8d8d8" fill-rule="evenodd"></path><path id="path4" d="" stroke="none" fill="#ffffff" fill-rule="evenodd"></path></g></svg>