<svg id="Robyn" xmlns="http://www.w3.org/2000/svg" viewBox="0 0 228.67 746.23"><defs><style>.cls-1,.cls-6,.cls-9{fill:#ecc19c;}.cls-1,.cls-13,.cls-14,.cls-15,.cls-18,.cls-2,.cls-4,.cls-5,.cls-7,.cls-8{stroke:#231f20;}.cls-1,.cls-10,.cls-12,.cls-13,.cls-14,.cls-15,.cls-16,.cls-18,.cls-2,.cls-3,.cls-4,.cls-5,.cls-6,.cls-7,.cls-8,.cls-9{stroke-linecap:round;}.cls-1,.cls-10,.cls-12,.cls-13,.cls-14,.cls-15,.cls-16,.cls-17,.cls-18,.cls-19,.cls-2,.cls-3,.cls-4,.cls-5,.cls-6,.cls-7,.cls-8,.cls-9{stroke-miterlimit:10;}.cls-3{fill:#fbb03b;}.cls-16,.cls-17,.cls-3,.cls-6{stroke:#000;}.cls-4{fill:#333;}.cls-5{fill:#8c6239;}.cls-12,.cls-14,.cls-19,.cls-7{fill:none;}.cls-7{stroke-width:2px;}.cls-10,.cls-20,.cls-8{fill:#e6e7e8;}.cls-9{stroke:#a67c52;}.cls-10,.cls-19{stroke:#fff;}.cls-11{fill:red;}.cls-12{stroke:#c69c6d;}.cls-13{fill:#603813;}.cls-15{fill:#c69c6d;}.cls-16{fill:#999;}.cls-17{fill:#ccc;}.cls-18{fill:#ff7bac;}</style></defs><title>robyn_holding_rat</title><path class="cls-1" d="M882.64,288.5c.56,6.89-.14,7.77,1,11,1,2.78,3.32,7.32,5,7,2.47-.48,1.57-11.1.83-19.9-.2-2.43-.56-5.72-3-7.4-1-.66-2.74-1.41-3.83-.7C881.23,279.42,882.11,282,882.64,288.5Z" transform="translate(-809.83 -201.5)"/><path class="cls-1" d="M975.5,290.5c-.56,6.89.14,7.77-1,11-1,2.78-3.32,7.32-5,7-2.47-.48-1.57-11.1-.83-19.9.2-2.43.56-5.72,3-7.4,1-.66,2.74-1.41,3.83-.7C976.91,281.42,976,284,975.5,290.5Z" transform="translate(-809.83 -201.5)"/><path class="cls-1" d="M880.5,402.5c-1.51-5.69-1.37-10.16-.74-18.34,1.78-23,2.49-35,7.74-38.66,2.93-2,7.06-3.44,9-8,2.12-5-.36-9.15,1-10,3.32-2.08,15.74,24,32,25,13.72.84,24.89-22.11,28-20,1.53,1-1.61,6,1,11,2,3.78,5.89,4.95,8,6,9.51,4.72,11.07,21.2,12,31,1.87,19.74,4,42-12,56-17.32,15.19-42.23,8.76-45,8-19.61-5.38-29.69-20.85-35-29A44.22,44.22,0,0,1,880.5,402.5Z" transform="translate(-809.83 -201.5)"/><path class="cls-2" d="M921.5,857.5c4.28,7.82,5.22,16.2-2,56-4.93,27.18-6.84,31.35-11,33-8.86,3.51-23.57-6.14-28-18-4.15-11.13-.17-22.22,4-33,5.1-13.19,8.77-12.6,13-25,5.34-15.67,2.45-25.35,7-27S917.1,849.45,921.5,857.5Z" transform="translate(-809.83 -201.5)"/><path class="cls-2" d="M932.5,843.5c-3.76,3.1-4.63,7.73-5,10-4.38,26.82,2.54,58,2.54,58,6.06,27.32,9.34,29.32,11.46,30,8.43,2.7,21.53-8.06,25-20,3-10.49-1.65-20.83-4-26-4-8.75-6.8-8.22-10-17-2.4-6.57-3.13-13.21-4-21-1.16-10.42-.55-14-3.46-16C941.65,839.19,935.92,840.69,932.5,843.5Z" transform="translate(-809.83 -201.5)"/><path class="cls-3" d="M906.5,708.5c24.38-11,67.86-14.16,75-1,1.36,2.51.16,3.32-4,24,0,0-2.7,13.44-5,28-2,12.94-1.58,13.07-4,29-2,13-3,19.6-5,27-3.39,12.53-4.4,10.21-7,21-2.68,11.13-2.71,18.17-8,21a11.89,11.89,0,0,1-7,1c-7.31-.78-11.32-7-12-8-2.76-4.25-3-8.52-3-14-.1-12.5.67-19.22,1-27,.46-11-.18-18.94-1-29-.53-6.51-1.52-19-3-19-.61,0-1.26,2.12-2,7-2.69,17.61-.38,29.4,0,50,.25,13.45-.65,12.39,0,21,.82,10.74,2.35,14.08,0,18-3.65,6.08-14.08,9.26-21,6-6.08-2.87-6.08-9.15-12-29-7.53-25.28-10.36-24.61-13-40-.22-1.31-.34-4.61-1.12-9.25-.82-4.87-1.44-6.3-1.88-9.75-.66-5.17.23-5.87,0-11-.16-3.73-.51-5.3-7-28h0c-3-10.77-4.77-16.24-2-19,2.56-2.55,7.08-.85,12.48-.3C888.86,718.5,898,712.35,906.5,708.5Z" transform="translate(-809.83 -201.5)"/><path class="cls-4" d="M992.5,533.5c1.34,2.39,1.56,8.93,2,22,.46,13.62-.38,16.91,0,26,.61,14.58,2.84,18.18,5,34,2.09,15.32,3.1,24.16,2,36-1.22,13.11-4.52,22.85-10,39-4.4,13-6.6,19.45-9,22-11.53,12.23-25.4,1.61-60,9-17.67,3.78-25.57,9-42,7-13-1.59-19-6.22-21-8-5.74-5-7.71-10.7-12-24-7-21.73-10.51-32.59-11-35-5.18-25.68-1.65-47.06,2-68,7.07-40.58,10.61-60.87,25-70,11.59-7.35,16.22-.44,64,1C965.64,525.65,986,522,992.5,533.5Z" transform="translate(-809.83 -201.5)"/><path class="cls-2" d="M961.5,495.5c-1.62-.24-4.26-.37-19,11-6.74,5.2-10.12,7.81-11,8-12.4,2.71-21.59-18.71-32-16-5.54,1.44-8.46,8.93-12,18-4.79,12.26-2,14.91-6,20-7.72,9.93-27.42,11-41,4-5.11-2.64-9.84-5.08-12-10-10-22.79,56.31-51.61,57-103,.17-12.67-3.54-26.84,0-28,4.3-1.41,17.5,16.95,34,33,1.65,1.61,5.24,5,10,5s8.47-3.52,10-5c14.19-13.71,32.49-29.16,34-28,1.14.87-8.35,10.34-6,20,1.61,6.61,9.34,8.93,11,12,9.83,18.19,38.3,31.72,46,49,12.06,27-2.6,55.32-7,56a45,45,0,0,0-9,2h0c-4.34,1.42-7.56.71-13,0-15.69-2-23.58-.73-24-3-.24-1.32,2.45-1.6,5-5,5.13-6.82,3.22-16,3-17-.87-3.73-2.37-6-5-10C969.48,501,966.32,496.21,961.5,495.5Z" transform="translate(-809.83 -201.5)"/><path class="cls-4" d="M894.5,337.5c.91,1.17-2.16,4.89-3,6-8.24,10.89-2,34,10,74,6.24,20.73,11,35.92,21,55,5.8,11.07,8.76,16.62,12,17,22.54,2.66,46.8-134,34-139-1-.41-5.63-1.22-8-5-1.07-1.7-1.86-4.28-1-5,1.54-1.3,7.09,4.5,15,9s11.65,4,21,7c8.18,2.59,24.1,7.63,33,19,3.94,5,6.09,10.77,8,29,2.47,23.63,1,34,1,60,.07,32.6,2.51,41-4,56-5.68,13.07-14.17,21.94-16,21-2.53-1.3,10-20.22,3-32,0,0-2.52-3.53-28-10,1.31.53,1.9.75,1.9.73s-14.78-9-31.9-8.73c-5.85.08-19.79.27-26,9-2.6,3.65-4,9-7,9-1.31,0-2.07-1-4-3a59,59,0,0,0-11-9c-3.44-2.05-6.49-2.43-11-3-15.17-1.9-19.92,4.33-34,2a38.39,38.39,0,0,0-8-1,30.69,30.69,0,0,0-15,4c-6.61,3.87-13.75,11.85-14,21-.31,11.24,10,17.61,8,20-2.1,2.57-16.28-2-24-13-5.8-8.27-6-17.34-6-23-.23-39.22-.22-58.82,0-62,4.19-61.73,12.26-76.37,23-82,.24-.13-.08.05,18.06-6.81,17.87-6.75,26.81-10.13,26.94-10.19C887.85,339.37,893.44,336.13,894.5,337.5Z" transform="translate(-809.83 -201.5)"/><path class="cls-5" d="M960.5,220.59c7,8.22,9.82,16.85,12,23.24,2.82,8.28,3.36,14,4,20.67.4,4.17.5,7.95-1,12.25-.48,1.37-2.75,7.89-5,7.75-5.14-.32,1.62-32.1-16-47.45-10.79-9.4-26.32-8.82-29-8.71-3.5.13-14.88.56-24,7.74-17.9,14.1-13.63,43.62-17,43.58-2.08,0-4.44-11.27-4-22.27.25-6.35.87-20.51,11-33.9,2-2.69,17.94-23.69,40-21.3C946.17,203.78,955.62,214.87,960.5,220.59Z" transform="translate(-809.83 -201.5)"/><path class="cls-6" d="M964.5,244.5c8.35,11.57,7.45,23.8,6,46-1.08,16.51-1.74,27.34-9,39-1,1.61-17.36,27.19-37,24-9.47-1.54-15.47-9.07-21-16-3.86-4.84-11.58-15.85-15-35-1.44-8.05-9.76-54.68,16-71,11.18-7.08,24.08-5.49,28-5C935.29,226.84,953.6,229.39,964.5,244.5Z" transform="translate(-809.83 -201.5)"/><path class="cls-7" d="M939.79,280.5a9.19,9.19,0,0,1,5-5,18.39,18.39,0,0,1,10-1A14.8,14.8,0,0,1,960,277a4,4,0,0,1,1,4c-.69,1.84-3.23,3-5.71,2" transform="translate(-809.83 -201.5)"/><path class="cls-7" d="M918.5,280.5a9.19,9.19,0,0,0-5-5,15.66,15.66,0,0,0-10-1,15,15,0,0,0-6,3,4.21,4.21,0,0,0-.5,3.5c.73,1.81,3.31,2.92,6,2" transform="translate(-809.83 -201.5)"/><path class="cls-8" d="M906.59,275c5.95-.14,12,4.49,11.37,7.34s-7.35,4.18-12.51,3.14c-3-.61-7.93-2.57-8-5.24S902.41,275.1,906.59,275Z" transform="translate(-809.83 -201.5)"/><path class="cls-9" d="M937.5,269.5a7,7,0,0,0-2.23,2.21,6.76,6.76,0,0,0-.77,1.79,27.82,27.82,0,0,0-1,14c0,.05,0,.13,0,.21a31,31,0,0,0,1.64,5.57c1.09,2.69,2.34,4.22,3.77,8,1.14,3,.81,3.79.55,4.21-.74,1.2-2.07.51-5,2-1.84.94-2.3,1.59-4,2a5.41,5.41,0,0,1-2.61,0c-1.39-.38-1.45-1-3.39-2-.74-.35-.68-.23-2.63-1a22.87,22.87,0,0,1-2.37-1c-2.4-1.72.23-10.5,2-15a27,27,0,0,0,2-8.75c0-.43,0-.83,0-1.25a21.15,21.15,0,0,0-2-8c-.22-.48-.54-1.18-1-2" transform="translate(-809.83 -201.5)"/><path d="M963.5,270.5c-.4.37-2.6-3.09-7-4-2.4-.49-4.8.16-9.5,1.5-5.85,1.66-9,3.24-9.5,2.5-.34-.56,1.08-2.06,1.5-2.5a9,9,0,0,1,3-2,14.13,14.13,0,0,1,3-1c7-1.49,10.57-2.39,12.5-1.5C961.86,265.51,963.92,270.11,963.5,270.5Z" transform="translate(-809.83 -201.5)"/><path d="M894.5,270.5c.4.37,2.6-3.09,7-4,2.4-.49,4.8.16,9.5,1.5,5.85,1.66,9,3.24,9.5,2.5.34-.56-1.08-2.06-1.5-2.5a9,9,0,0,0-3-2,14.13,14.13,0,0,0-3-1c-7-1.49-10.57-2.39-12.5-1.5C896.14,265.51,894.08,270.11,894.5,270.5Z" transform="translate(-809.83 -201.5)"/><path class="cls-10" d="M941.5,320.5c.46,1.33-3.44,4.84-8,6-9.37,2.38-19.48-5.71-19-7,.1-.26.57-.08,5,0h8c4.83,0,4.83,0,6,0C938.65,319.62,941.22,319.69,941.5,320.5Z" transform="translate(-809.83 -201.5)"/><path class="cls-11" d="M923,317c2.54.21,2.52.92,5,1,3,.09,3.29-.94,6-1,3.42-.08,3.76,1.56,8,2,3.63.38,5.8-.57,6,0s-2.13,2.66-5,3c-3.31.39-4-1.87-8-2-3-.1-3.4,1.14-7,1-2.11-.08-1.83-.51-5-1-4.29-.67-5.78-.05-10-1-1.28-.29-3-.77-3-1s2.08.14,5,0C919.32,317.8,919.84,316.74,923,317Z" transform="translate(-809.83 -201.5)"/><path class="cls-11" d="M936,323c2.11-.77,2.66-1.48,5-2,.47-.1,3.63-.8,4,0s-3.2,3.45-4,4c-3.81,2.63-7.18,5-12,5-3.65,0-6.1-1.31-11-4,0,0-5.69-3.12-7-7-.1-.3-.22-.74,0-1s1.28-.33,6,2c4.1,2,4.12,2.37,6,3a20.52,20.52,0,0,0,6,1A18.38,18.38,0,0,0,936,323Z" transform="translate(-809.83 -201.5)"/><path class="cls-12" d="M952.5,322.5c.33-2.67.67-5.33,1-8a15.39,15.39,0,0,1-4-2c-5.45-3.82-6.7-10.1-7-12" transform="translate(-809.83 -201.5)"/><path class="cls-12" d="M905.68,321.79l-1.59-7.91a15.22,15.22,0,0,0,3.84-2.29c5.16-4.2,5.94-10.56,6.1-12.48" transform="translate(-809.83 -201.5)"/><path class="cls-1" d="M891.38,502.5a39.7,39.7,0,0,0-6.88,12c-1,3-1.4,6.66-2.12,14-.44,4.56-.46,7,1,8s3.52-.35,5.12,1,.39,3.22,2,5c1.37,1.52,2.59.53,5,2,2.89,1.76,2.46,4,5,5,1.77.72,2.14-.31,5,0,3.24.35,4.06,1.8,7.88,3a20.56,20.56,0,0,0,6.12,1c7.08-.08,11.16-5.46,13-4,1.21,1-.53,3.3,1,6,1.29,2.28,4.36,3.85,6,3,2-1,1.61-5.48,1-8-1.29-5.37-4.43-5.52-7-11-1.92-4.1-2-8-2.12-14-.14-7.06,1.1-7.52,0-11-.27-.86-2.34-7.09-7.88-10-2-1.07-3.49-1.14-6-3-2.3-1.7-2.49-2.69-4-4-3.6-3.11-9.62-3.67-14.12-2C896.22,496.68,894.56,498.67,891.38,502.5Z" transform="translate(-809.83 -201.5)"/><path class="cls-1" d="M970.5,498.5c3.81,4.29,6.43,7.25,8,12,1.16,3.51-.2,2.13,1,14,.35,3.48.74,6.33-1,8-1.24,1.19-2.36.64-4,2-2.19,1.82-1.42,3.81-3,6-2.26,3.14-6.09.61-10,4-1.41,1.22-1.31,1.82-3,3a9.93,9.93,0,0,1-6,2c-2-.09-2.08-.92-4-1-2.6-.1-3.17,1.4-6,2s-6.56.15-8-2c-.88-1.31-.1-2.17-1-5a15,15,0,0,0-2-4c-2.37-3.72-.8-7.56-1-18-.14-7-.88-7.7,0-11a22.26,22.26,0,0,1,5-9,29.12,29.12,0,0,1,12-8c4.54-1.85,9.74-4,15-2C965.19,492.51,967,494.51,970.5,498.5Z" transform="translate(-809.83 -201.5)"/><ellipse class="cls-13" cx="98.29" cy="80" rx="4.59" ry="4"/><ellipse cx="908.67" cy="282.45" rx="2.05" ry="2.21" transform="translate(-851.46 130.02) rotate(-20.22)"/><path class="cls-8" d="M950.91,275c-5.95-.14-12,4.49-11.37,7.34s7.35,4.18,12.51,3.14c3-.61,7.93-2.57,8-5.24S955.09,275.1,950.91,275Z" transform="translate(-809.83 -201.5)"/><ellipse class="cls-13" cx="139.54" cy="80" rx="4.59" ry="4"/><ellipse cx="948.83" cy="282.45" rx="2.21" ry="2.05" transform="translate(-454.04 873.65) rotate(-69.78)"/><ellipse class="cls-8" cx="972.5" cy="302.96" rx="3.31" ry="1.89" transform="translate(-535.29 843.34) rotate(-64.05)"/><ellipse class="cls-8" cx="886.5" cy="301.96" rx="1.89" ry="3.31" transform="translate(-842.05 282.2) rotate(-30)"/><path class="cls-14" d="M945.81,548.31a6.76,6.76,0,0,1-6.31-4.81,6.51,6.51,0,0,1,1-5,5.28,5.28,0,0,1,2-2c2-1.11,4.75-.69,7,1" transform="translate(-809.83 -201.5)"/><path class="cls-14" d="M962.5,543.5a30,30,0,0,0-7-2c-2-.3-3.07-.18-4-1-1.51-1.32-1.36-4-1-6a12,12,0,0,1,4-3,13.75,13.75,0,0,1,7-1,19.23,19.23,0,0,1,5,1" transform="translate(-809.83 -201.5)"/><path class="cls-14" d="M933.5,542.5a5.79,5.79,0,0,1,3-2,5.73,5.73,0,0,1,3,0" transform="translate(-809.83 -201.5)"/><path class="cls-14" d="M978.5,531.5a5.51,5.51,0,0,1-2,2,5.72,5.72,0,0,1-3.84.64,12.05,12.05,0,0,1-3.88-3.15,13.74,13.74,0,0,1-2.66-6.55c-.51-2.73.28-2.79-.24-5.09-.63-2.77-1.69-2.84-2.38-5.85a8.54,8.54,0,0,1,0-5,7.46,7.46,0,0,1,2-3" transform="translate(-809.83 -201.5)"/><path class="cls-14" d="M899.5,518.5a18.76,18.76,0,0,0-4,7c-1,3.33-.48,5.36-2.06,7.64a9.19,9.19,0,0,1-4.94,3.36" transform="translate(-809.83 -201.5)"/><path class="cls-14" d="M898.5,534.5a53.32,53.32,0,0,0,11-1,8.71,8.71,0,0,1,5,0c1.68.6,4,2.16,4,4,0,2.52-4.21,4.36-8,6a25.9,25.9,0,0,1-7,2,24.28,24.28,0,0,1-6,0" transform="translate(-809.83 -201.5)"/><path class="cls-14" d="M918.5,538.5a9.33,9.33,0,0,1,5,0c1.61.46,4.84,1.89,5,4,.19,2.54-4.24,4.67-7,6a20.92,20.92,0,0,1-7,2,20.32,20.32,0,0,1-4,0" transform="translate(-809.83 -201.5)"/><path class="cls-14" d="M927.5,540.5a5.36,5.36,0,0,1,4,1,5,5,0,0,1,0,8" transform="translate(-809.83 -201.5)"/><path class="cls-15" d="M906.94,483.74c-.4,2.14-2.23,4.73-4.71,4.71-2.19,0-3.81-2.06-4.41-3.58-.44-1.14-.13-1.48.2-6,.24-3.3.16-4.4.77-4.63s1.06.57,2.89,2.13c3.11,2.63,4.33,2.67,5,4.43A5.29,5.29,0,0,1,906.94,483.74Z" transform="translate(-809.83 -201.5)"/><path class="cls-16" d="M966,488.15c.66,2.45.57,5,.39,10.23-.21,6,.36,7.49-.77,8.49-1.9,1.67-4.35-.8-8.3.58-2.38.82-2.48,2.06-6.56,5.79-1.16,1.06-3.48,2.76-8.11,6.17-5.81,4.28-8.76,6.27-9.46,5.6s.86-2.67,0-3.47c-.45-.42-1.18-.14-2.31,0h0a24.2,24.2,0,0,1-5-.58c-3.67-.91-3.76-3.83-6.95-4.06H912.3c-3.46.16-3.89,2.1-7.14,2.13-2.74,0-4.44,0-5.6-1.16-1-1-1-2.28-1-6.56s.13-6.51.19-7.72a72.44,72.44,0,0,1,2.12-14.48c1.24-4.78,2.34-6.71,4.06-8.1a14.69,14.69,0,0,1,3.66-1.93c4.37-1.95,7.2-2.58,8.49-3.48,6.8-4.66,7.07-5.57,9.46-6.94,6.36-3.67,14.8-3.23,20.84-.58,3.68,1.61,6.09,4.19,11,9.26C962.49,481.54,964.85,484,966,488.15Z" transform="translate(-809.83 -201.5)"/><path class="cls-17" d="M902,517.16c1.48-.06,2-.65,3.92-1.22a24,24,0,0,1,3.18-.55c4.25-.93,4.94-7.2,7-7.17,2.42,0,1.87,8.34,7.33,11.58,2.56,1.52,5.47,1.36,9.07,1.16a24.69,24.69,0,0,0,8.69-1.93c3.09-1.34,5.12-3,8.68-6s3.61-3.56,5.6-4.63c3.22-1.73,8.13-2.83,9.07-1.35,1.68,2.62-8.49,14.32-14.86,14.28-4.34,0-5.39.4-7.53,1.16-2.87,1-2.83,1.88-5.79,2.7-3.41.95-4.68.11-7.52,1.55-2,1-2.52,2-4.44,2.31-2.25.41-5.16-.16-5.6-1.54s2.41-2.89,1.93-4.44c-.4-1.27-2.73-1.58-5.4-1.93a13,13,0,0,0-6,.39,6,6,0,0,0-2,1c-2.75,2.2-.88,6.33-3,7.72-1.53,1-4.47.09-5.41-1.54-.59-1,0-1.69.2-4.25.36-4.34-.9-6.92.19-7.53C900,516.56,900.36,517.23,902,517.16Z" transform="translate(-809.83 -201.5)"/><path class="cls-18" d="M949,526a.73.73,0,0,0-.58,0c-.37.11-.44.37-.77.57s-.33.14-1,.2c-1.64.15-1.8.13-1.93,0-.27-.29,0-.68-.19-1-.49-.59-2.27.39-2.51,0-.14-.21.33-.68,1-1.54,1-1.29.89-1.58,1.35-2.12,1.23-1.48,2.69-.57,5.4-1.93,1.5-.76,1.22-1.12,3.09-2.13,1.24-.67,3.57-1.93,4.44-1.16s.46,2.81-.39,4.06a3,3,0,0,0-.77,1.54c0,.16,0,.27,0,1.35v.58c0,1.32,0,2.14-.39,2.32s-1.53-.61-1.93-1a1.33,1.33,0,0,0-.58-.38,1.51,1.51,0,0,0-1.15.19c-.9.54-.59,1.57-1.35,1.93a1.25,1.25,0,0,1-1.36-.19C949,526.91,949.34,526.21,949,526Z" transform="translate(-809.83 -201.5)"/><path class="cls-18" d="M919.05,531.19c-.58.56-2,.21-2.12-.2,0-.13.12-.18.39-.58.08-.11.59-.89.38-1.15s-.55-.06-.77,0a2.65,2.65,0,0,0-1.35,1c-.29.36-.2.4-.39.58a1.8,1.8,0,0,1-2.31,0,1.45,1.45,0,0,1-.39-1.54c.17-.32.4-.23,1.16-.78.45-.32.43-.4,1-.77.36-.25.7-.42.86-.53a3.75,3.75,0,0,1,.49-.24,13.06,13.06,0,0,1,2.12-.77c1.59-.21,1.73,1,4.44,1.54.74.17,1.47.24,1.73.77a3.85,3.85,0,0,1,.2,1.36,2.16,2.16,0,0,0,0,.57c.09.61.47.84.38,1s-1.24.12-1.93-.58c-.36-.37-.24-.53-.58-.77a2.21,2.21,0,0,0-2.12,0,2.71,2.71,0,0,0-.58.38C919.26,530.75,919.27,531,919.05,531.19Z" transform="translate(-809.83 -201.5)"/><path class="cls-18" d="M900.14,533.5a1.06,1.06,0,0,1-.77-.38c-.34-.43-.09-.85-.39-1.16a1.16,1.16,0,0,0-1-.19c-.93.09-1.09.7-1.93.77-.1,0-.85.06-1.16-.39-.18-.25-.12-.56,0-1.16a3.09,3.09,0,0,1,.58-1.54,3,3,0,0,1,1.35-.77,13.43,13.43,0,0,1,2.12-.77c1.59-.22,1.73.94,4.44,1.54.75.16,1.48.24,1.74.77a4,4,0,0,1,.19,1.35,3.7,3.7,0,0,0,0,.58c.1.61.47.84.39,1s-1.23-.24-1.93-.58a11.35,11.35,0,0,0-1.16-.58c-.38-.15-1.3-.5-1.54-.19s.07.36,0,.77A1.19,1.19,0,0,1,900.14,533.5Z" transform="translate(-809.83 -201.5)"/><path class="cls-19" d="M915.18,504.46a54.8,54.8,0,0,1,37.36,6.75" transform="translate(-809.83 -201.5)"/><path class="cls-19" d="M916.16,505.59a54.79,54.79,0,0,1,35.24,14.12" transform="translate(-809.83 -201.5)"/><path class="cls-19" d="M915.23,505.87a55.29,55.29,0,0,1,20.54,7.68,54.7,54.7,0,0,1,12.59,10.87" transform="translate(-809.83 -201.5)"/><path class="cls-19" d="M919.15,508.32a38,38,0,0,1,16.4,9.38,37.53,37.53,0,0,1,7.15,9.72" transform="translate(-809.83 -201.5)"/><path class="cls-19" d="M914.41,505a25,25,0,0,1,6.48-6.15A27,27,0,0,1,931.12,495a34.18,34.18,0,0,1,8.68-.58" transform="translate(-809.83 -201.5)"/><path class="cls-19" d="M916.25,509.81a14.25,14.25,0,0,1,10.26,4A23.41,23.41,0,0,1,932,522" transform="translate(-809.83 -201.5)"/><path class="cls-19" d="M908.47,505a54.74,54.74,0,0,0-37.32-6.93" transform="translate(-809.83 -201.5)"/><path class="cls-19" d="M907.16,505.7a54.73,54.73,0,0,0-38,.72" transform="translate(-809.83 -201.5)"/><path class="cls-19" d="M907.92,506.3a54.76,54.76,0,0,0-37.54,5.59" transform="translate(-809.83 -201.5)"/><path class="cls-19" d="M903.39,507.19a38,38,0,0,0-18.66,3,37.38,37.38,0,0,0-10.12,6.56" transform="translate(-809.83 -201.5)"/><path class="cls-19" d="M909,505.78a25.11,25.11,0,0,0-3.88-8,27.21,27.21,0,0,0-8.19-7.23,34.57,34.57,0,0,0-7.92-3.62" transform="translate(-809.83 -201.5)"/><path class="cls-19" d="M905.58,509.61a14.31,14.31,0,0,0-11,.07,23.28,23.28,0,0,0-8,5.81" transform="translate(-809.83 -201.5)"/><path class="cls-8" d="M914.42,488.53c2,.56-.45,6.49,2.9,14.48,1.65,3.94,3.39,5.26,2.7,7.53-1,3.14-5.79,5.5-7.72,4.63a4.72,4.72,0,0,0-2.51-.58c-.5,0-.62.15-1,.19-1.7.22-3.31-1.81-3.86-2.51a7.54,7.54,0,0,1-1.93-4.44c-.08-1.83.74-2.7,2.31-6s1.22-3.41,2.32-5.6C909,493.54,912.47,488,914.42,488.53Z" transform="translate(-809.83 -201.5)"/><path class="cls-18" d="M913.65,508.22a3.93,3.93,0,0,1-.77,2.89c-.18.19-.85.9-1.55.78a2.5,2.5,0,0,0-1-.2,1.78,1.78,0,0,0-.58.2,2.24,2.24,0,0,1-1.74-.39c-.9-.61-1-1.8-1.15-3.28-.12-1.29,0-2.49.19-2.51s.2,1.26,1.16,1.93a2.44,2.44,0,0,0,1.54.39,3.63,3.63,0,0,0,2.32-1.16c.64-.66.71-1.19,1-1.16C913.49,505.76,913.66,507.27,913.65,508.22Z" transform="translate(-809.83 -201.5)"/><path class="cls-15" d="M927.74,486.22c-.3,3.12,1.25,6.64,2.89,6.75.61,0,.79-.41,2.13-1.35,2.49-1.75,3.35-1.2,4.63-2.31,2.35-2,1.92-6,1.74-7.72-.16-1.46-.37-3.37-1.55-3.86-.33-.14-.89-.24-3.67,1.35s-4.3,2.47-5.21,4.05A7.74,7.74,0,0,0,927.74,486.22Z" transform="translate(-809.83 -201.5)"/><path class="cls-2" d="M919.83,492.2a6.36,6.36,0,0,0-.78,1.93c-.16.76-.06,1,0,1.13v0a2.72,2.72,0,0,0,1.55,1.16,2.44,2.44,0,0,0,1.93-.39,4.7,4.7,0,0,0,.38-1.54,4.54,4.54,0,0,0-.19-1.74,1.66,1.66,0,0,0-1.54-1.35A1.72,1.72,0,0,0,919.83,492.2Z" transform="translate(-809.83 -201.5)"/><path class="cls-2" d="M903.65,492a5,5,0,0,0-.64,1.49c-.13.59,0,.8,0,.87v0a2.52,2.52,0,0,0,1.18,1.08,2,2,0,0,0,1.7-.48,3.4,3.4,0,0,0,.16-2.53,1.35,1.35,0,0,0-1.28-1A1.46,1.46,0,0,0,903.65,492Z" transform="translate(-809.83 -201.5)"/><path class="cls-20" d="M920.14,493.28a1.59,1.59,0,0,0-.19.52c0,.21,0,.28,0,.31h0c0,.06.2.38.45.4a.52.52,0,0,0,.39-.2,1.19,1.19,0,0,0,.09-.41,1.23,1.23,0,0,0,0-.47.41.41,0,0,0-.38-.37A.4.4,0,0,0,920.14,493.28Z" transform="translate(-809.83 -201.5)"/><ellipse class="cls-20" cx="95.46" cy="291.8" rx="0.53" ry="0.64"/><path class="cls-14" d="M944.53,525.59c.44-.35.89-.73,1.35-1.16s1.09-1,1.54-1.54" transform="translate(-809.83 -201.5)"/><path class="cls-14" d="M948.68,526a10.89,10.89,0,0,0,.72-1.06,8.06,8.06,0,0,0,.63-1.35" transform="translate(-809.83 -201.5)"/><path class="cls-14" d="M953.6,525.4a3.48,3.48,0,0,0-.39-1.16,3.53,3.53,0,0,0-.77-1" transform="translate(-809.83 -201.5)"/><path class="cls-14" d="M899.05,532c0-.19.09-.47.13-.81,0-.17.12-.78.14-1" transform="translate(-809.83 -201.5)"/><path class="cls-14" d="M897.25,532a8.58,8.58,0,0,1,.57-1.35,9.2,9.2,0,0,1,.58-1" transform="translate(-809.83 -201.5)"/><path class="cls-14" d="M901,531.81a7.29,7.29,0,0,0-.05-.82c0-.16,0-.79-.06-1" transform="translate(-809.83 -201.5)"/><path class="cls-14" d="M903.17,532.14a7.62,7.62,0,0,0-.29-.76c-.07-.16-.28-.74-.35-.9" transform="translate(-809.83 -201.5)"/><path class="cls-14" d="M917.58,529.1a2.81,2.81,0,0,1,.12-.81,1.88,1.88,0,0,1,.39-.77c.51-.5,1.45-.22,1.54-.19" transform="translate(-809.83 -201.5)"/><path class="cls-14" d="M922.4,530.07a1.86,1.86,0,0,1-.26-.81,2,2,0,0,1,.19-1" transform="translate(-809.83 -201.5)"/><path class="cls-14" d="M919.83,530a3,3,0,0,1,.38-.77,3.53,3.53,0,0,1,.77-.78" transform="translate(-809.83 -201.5)"/></svg>